<?xml version="1.0" standalone="no"?>
<!DOCTYPE svg PUBLIC "-//W3C//DTD SVG 20010904//EN"
 "http://www.w3.org/TR/2001/REC-SVG-20010904/DTD/svg10.dtd">
<svg version="1.0" xmlns="http://www.w3.org/2000/svg"
 width="1280.000000pt" height="1280.000000pt" viewBox="0 0 1280.000000 1280.000000"
 preserveAspectRatio="xMidYMid meet">
<metadata>
Created by potrace 1.14, written by Peter Selinger 2001-2017
</metadata>
<g transform="translate(0.000000,1280.000000) scale(0.100000,-0.100000)"
fill="#000000" stroke="none">
<path d="M8773 10217 l-42 -10 125 -84 c69 -47 129 -81 136 -77 6 4 8 3 5 -3
-7 -11 98 -86 120 -86 7 0 10 -3 8 -6 -2 -4 30 -28 71 -55 68 -44 93 -74 62
-73 -35 1 -49 -4 -42 -15 4 -7 3 -8 -5 -4 -15 10 -73 -3 -66 -15 4 -5 -1 -6
-9 -3 -21 8 -188 -45 -203 -64 -12 -16 -14 -15 -28 3 -9 11 -20 20 -25 20 -5
0 -15 7 -22 16 -33 40 -87 69 -125 67 -21 -1 -46 2 -57 7 -18 8 -18 7 -1 -18
9 -15 22 -24 28 -20 6 4 7 1 3 -6 -5 -7 0 -21 10 -32 25 -27 12 -33 -38 -17
-24 8 -55 12 -71 9 -27 -6 -27 -6 29 -51 31 -25 61 -44 66 -42 5 1 7 -2 4 -7
-4 -5 0 -13 8 -18 7 -4 22 -26 33 -48 14 -30 24 -39 38 -37 25 4 79 59 63 64
-6 2 6 4 28 4 132 0 496 33 489 44 -2 3 10 4 27 2 18 -3 28 -1 25 5 -3 5 0 10
8 10 11 0 12 -4 4 -13 -6 -7 -7 -19 -3 -26 4 -7 4 -10 -1 -6 -6 6 -84 -206
-85 -229 0 -2 15 -3 34 -3 31 0 63 20 50 32 -3 3 1 5 8 4 20 -2 141 141 132
157 -4 6 -3 9 1 4 8 -7 45 20 45 33 0 13 69 80 82 80 21 0 262 48 331 66 34 9
67 23 75 32 7 9 11 11 7 5 -4 -9 -1 -11 9 -7 9 3 13 10 10 15 -3 5 1 6 9 3 17
-6 80 51 75 68 -6 18 -80 59 -96 53 -7 -3 -11 -1 -8 4 3 5 -1 11 -9 15 -15 5
-31 -9 -18 -17 5 -2 2 -2 -6 0 -9 2 -11 -2 -7 -13 5 -13 4 -14 -7 -6 -8 7 -18
8 -22 4 -5 -4 -5 -2 -2 5 4 6 1 14 -5 17 -7 3 -2 3 11 0 17 -5 21 -3 16 6 -5
9 -4 11 3 6 7 -4 12 -3 12 3 0 13 -37 24 -51 15 -8 -5 -9 -3 -4 6 6 10 -9 12
-76 8 -84 -5 -272 -46 -265 -57 2 -3 -27 -6 -65 -7 -37 0 -66 3 -63 8 5 7 -13
12 -44 11 -7 -1 -11 2 -8 5 4 3 -26 18 -66 33 -54 22 -74 25 -80 16 -6 -9 -8
-8 -8 4 0 10 -37 30 -115 61 -63 25 -112 41 -109 36 4 -6 -7 0 -24 12 -18 13
-37 20 -47 16 -9 -3 -14 -2 -11 3 5 7 -200 93 -214 90 -3 -1 -24 -6 -47 -12z
m82 -35 c-3 -3 -15 -7 -28 -9 -21 -4 -21 -3 -2 11 18 13 44 12 30 -2z m60 -60
c3 -16 0 -19 -13 -15 -9 4 -11 8 -5 10 7 3 9 12 6 21 -3 9 -3 14 1 11 4 -4 8
-16 11 -27z m52 22 c-3 -3 -12 -4 -19 -1 -8 3 -5 6 6 6 11 1 17 -2 13 -5z
m-10 -36 c2 -18 0 -20 -7 -8 -12 18 -13 30 -2 30 4 0 9 -10 9 -22z m273 -72
c0 -3 -4 -8 -10 -11 -5 -3 -10 -1 -10 4 0 6 5 11 10 11 6 0 10 -2 10 -4z m94
-24 c3 -5 -1 -9 -9 -9 -8 0 -11 5 -8 10 4 6 0 8 -9 5 -8 -4 -15 0 -15 7 0 10
5 11 18 4 10 -5 20 -13 23 -17z m-64 14 c0 -2 -7 -9 -15 -16 -13 -11 -14 -10
-9 4 5 14 24 23 24 12z m167 -52 c-3 -3 -12 -4 -19 -1 -8 3 -5 6 6 6 11 1 17
-2 13 -5z m-238 -22 c7 -13 6 -19 -2 -19 -7 0 -13 9 -13 19 0 10 1 18 3 18 1
0 7 -8 12 -18z m581 -6 c0 -2 -7 -7 -16 -10 -8 -3 -12 -2 -9 4 6 10 25 14 25
6z m412 -54 c-7 -2 -9 -9 -6 -14 4 -7 2 -8 -4 -4 -6 4 -9 13 -6 21 4 8 11 12
17 8 8 -5 7 -8 -1 -11z m-545 -147 c0 -8 -4 -12 -9 -9 -5 3 -6 10 -3 15 9 13
12 11 12 -6z m44 -2 c-11 -5 -11 -7 0 -15 11 -8 11 -9 -1 -5 -8 2 -24 -3 -35
-12 -19 -15 -19 -15 -5 4 18 25 32 35 45 34 6 0 4 -3 -4 -6z m-924 -25 c2 -17
0 -19 -7 -8 -5 8 -6 18 -4 22 8 12 10 10 11 -14z m-102 2 c-3 -5 -12 -10 -18
-10 -7 0 -6 4 3 10 19 12 23 12 15 0z m87 -42 c-9 -9 -7 -18 11 -37 19 -23 19
-24 1 -8 -11 9 -24 15 -27 12 -4 -3 -5 -2 -2 2 3 3 -1 13 -8 21 -8 11 -8 14 0
9 6 -4 14 -3 18 3 3 5 9 10 13 10 3 0 1 -5 -6 -12z m108 -32 c0 -2 -8 -10 -17
-17 -16 -13 -17 -12 -4 4 13 16 21 21 21 13z m731 -29 c-10 -9 -11 -8 -5 6 3
10 9 15 12 12 3 -3 0 -11 -7 -18z m-756 -27 c-3 -5 -12 -10 -18 -10 -7 0 -6 4
3 10 19 12 23 12 15 0z m599 -29 c3 -5 -2 -15 -12 -22 -15 -12 -16 -12 -5 2 7
9 10 19 6 22 -3 4 -4 7 0 7 3 0 8 -4 11 -9z"/>
<path d="M8175 9563 c-208 -9 -603 -55 -765 -88 -41 -8 -88 -17 -105 -19 -92
-14 -203 -41 -199 -48 3 -4 -1 -5 -9 -2 -14 5 -289 -61 -312 -74 -10 -7 -16
-8 -50 -10 -15 -2 -16 -5 -7 -14 7 -7 12 -16 12 -22 0 -5 -6 -1 -14 9 -13 18
-15 18 -87 -4 -41 -13 -119 -39 -174 -58 -55 -19 -108 -37 -117 -40 -10 -3
-18 -10 -18 -15 0 -5 -4 -7 -9 -4 -9 6 -138 -42 -196 -72 -16 -9 -36 -17 -43
-18 -31 -6 -281 -127 -276 -135 3 -5 -2 -6 -10 -3 -10 4 -16 1 -16 -7 0 -7 -3
-9 -6 -6 -11 10 -165 -74 -157 -86 3 -5 1 -7 -5 -3 -11 7 -62 -13 -62 -25 0
-4 -11 -10 -25 -13 -16 -4 -23 -11 -19 -18 4 -7 3 -8 -4 -4 -10 6 -229 -124
-265 -157 -7 -7 -26 -20 -42 -29 -17 -10 -29 -22 -28 -27 1 -5 -5 -8 -14 -7
-9 0 -18 -5 -21 -13 -3 -8 0 -11 7 -7 17 11 13 0 -6 -15 -11 -10 -14 -10 -9
-1 21 35 -58 -15 -151 -94 -11 -11 -31 -26 -44 -34 -43 -29 -159 -132 -159
-141 0 -6 -4 -8 -8 -5 -12 7 -74 -59 -65 -69 5 -4 3 -5 -3 -2 -6 4 -48 -28
-93 -69 -71 -66 -80 -79 -69 -93 11 -14 11 -14 -3 -4 -14 11 -24 4 -68 -46
-51 -59 -63 -79 -38 -65 7 4 8 3 4 -2 -5 -5 -15 -9 -23 -9 -7 0 -15 -4 -16
-10 -2 -5 -18 -23 -36 -39 -19 -17 -31 -35 -28 -43 3 -8 2 -12 -3 -9 -13 8
-44 -31 -35 -45 4 -7 3 -10 -3 -6 -15 9 -97 -99 -90 -117 4 -9 1 -13 -6 -10
-13 5 -17 -1 -84 -114 -24 -41 -38 -71 -31 -67 7 4 6 0 -3 -7 -27 -22 -59
-101 -47 -116 8 -9 7 -11 -3 -7 -15 6 -60 -95 -63 -141 0 -13 -5 -24 -10 -24
-4 0 -6 -6 -3 -14 3 -7 2 -17 -3 -22 -15 -15 -30 -134 -30 -237 0 -109 19
-218 56 -316 29 -78 102 -204 113 -196 5 2 17 -5 27 -18 l19 -22 -22 19 c-33
27 -28 11 11 -43 42 -57 101 -112 112 -103 4 4 4 2 1 -4 -4 -6 15 -31 41 -56
60 -56 223 -178 240 -178 6 0 12 -5 12 -11 0 -6 7 -8 16 -5 8 3 13 2 10 -3 -8
-12 72 -53 86 -45 7 4 10 4 6 -1 -11 -11 29 -38 44 -29 6 4 8 3 5 -3 -3 -5 10
-18 30 -27 36 -17 38 -17 51 1 13 17 14 17 8 -3 -6 -19 3 -26 81 -59 93 -38
253 -88 261 -81 2 3 -20 17 -50 33 -70 37 -72 38 -63 23 6 -9 4 -11 -4 -6 -7
5 -10 10 -7 13 3 3 -30 31 -73 63 -44 32 -82 63 -86 70 -4 6 -15 14 -25 18
-18 7 -152 159 -171 193 -9 17 -13 18 -27 7 -15 -12 -16 -11 -2 6 13 16 12 20
-1 30 -9 6 -17 14 -17 19 -3 16 -35 72 -46 79 -6 4 -7 8 -3 8 4 0 2 10 -5 23
-6 12 -13 27 -14 32 -1 6 -9 30 -17 55 -9 25 -19 62 -22 83 -4 20 -11 37 -15
37 -4 0 -6 82 -5 183 1 139 6 199 20 252 10 39 19 77 20 85 1 8 6 23 10 34 5
12 3 22 -6 28 -11 8 -10 8 5 4 13 -5 17 -2 13 8 -3 8 -2 16 3 18 4 2 10 12 12
23 1 11 5 22 8 25 14 14 39 83 34 92 -5 7 -2 8 6 3 10 -6 12 -4 7 8 -3 10 -3
17 2 17 9 0 37 60 33 73 -1 4 2 7 8 7 11 0 44 60 33 60 -5 0 -3 4 2 8 6 4 45
59 87 122 41 63 101 149 131 189 47 62 54 78 44 90 -10 14 -10 14 5 3 14 -11
19 -9 37 16 16 23 18 32 8 42 -10 12 -9 12 5 2 14 -11 19 -8 37 16 11 16 17
32 13 36 -4 4 -2 6 3 5 6 -2 96 82 201 186 177 175 275 261 426 374 32 24 55
48 51 54 -3 6 -1 7 6 3 6 -4 25 2 42 14 28 21 29 23 12 37 -17 13 -16 13 3 4
19 -9 41 2 150 73 71 45 152 96 179 111 28 16 52 32 55 35 5 5 52 30 145 78
28 14 53 30 57 36 4 6 8 8 8 4 0 -4 18 2 41 14 30 15 37 23 27 30 -9 7 -7 8 8
4 20 -6 163 56 175 76 3 5 9 9 13 8 17 -5 96 33 90 42 -4 7 -2 8 4 4 6 -4 28
1 49 10 21 10 40 18 43 18 3 1 44 16 92 35 68 26 85 37 81 50 -4 12 -3 13 5 3
7 -11 17 -11 51 -1 22 7 41 16 41 21 0 5 4 7 9 4 14 -9 42 5 34 17 -3 6 -1 7
5 3 16 -10 93 15 85 27 -3 6 -1 7 5 3 9 -5 306 77 362 101 8 3 21 5 29 4 8 -1
10 2 5 10 -5 9 -2 10 9 6 14 -5 227 41 277 60 8 4 18 6 22 5 3 -1 61 10 128
23 66 14 130 25 141 25 10 0 19 4 19 9 0 5 8 7 18 5 9 -2 53 2 97 10 l80 14
-95 -1 c-52 0 -122 -2 -155 -4z m-1004 -171 c-7 -2 -18 1 -23 6 -8 8 -4 9 13
5 13 -4 18 -8 10 -11z m-368 -77 c4 -8 3 -16 -1 -19 -4 -3 -9 4 -9 15 -2 23 3
25 10 4z m-413 -175 c0 -5 -2 -10 -4 -10 -3 0 -8 5 -11 10 -3 6 -1 10 4 10 6
0 11 -4 11 -10z m-400 -130 c6 -11 8 -20 6 -20 -3 0 -10 9 -16 20 -6 11 -8 20
-6 20 3 0 10 -9 16 -20z m497 -16 c-3 -3 -12 -4 -19 -1 -8 3 -5 6 6 6 11 1 17
-2 13 -5z m-207 -48 c0 -2 -7 -7 -16 -10 -8 -3 -12 -2 -9 4 6 10 25 14 25 6z
m-95 -86 c3 -5 1 -10 -4 -10 -6 0 -11 5 -11 10 0 6 2 10 4 10 3 0 8 -4 11 -10z
m-165 -90 c0 -5 -2 -10 -4 -10 -3 0 -8 5 -11 10 -3 6 -1 10 4 10 6 0 11 -4 11
-10z m-645 -99 c6 -1 3 -5 -5 -11 -9 -5 -19 -5 -26 0 -6 6 -15 6 -19 2 -5 -4
-5 -2 -2 5 4 6 15 10 25 8 9 -2 22 -4 27 -4z m400 -40 c3 -5 2 -12 -3 -15 -5
-3 -9 1 -9 9 0 17 3 19 12 6z m-585 -115 c0 -2 -8 -10 -17 -17 -16 -13 -17
-12 -4 4 13 16 21 21 21 13z m387 -75 c0 -10 -7 -18 -14 -18 -10 0 -10 3 0 16
10 12 9 14 -4 9 -9 -4 -16 -1 -16 7 0 7 8 10 18 8 10 -3 17 -13 16 -22z m28
20 c3 -5 2 -12 -3 -15 -5 -3 -9 1 -9 9 0 17 3 19 12 6z m-571 -53 c-3 -4 -14
-6 -24 -5 -31 5 -32 13 -1 12 16 0 27 -3 25 -7z m-84 -74 c0 -8 -19 -13 -24
-6 -3 5 1 9 9 9 8 0 15 -2 15 -3z m-133 -41 c-4 -3 1 -12 11 -20 15 -13 15
-13 -6 -3 -19 9 -23 30 -5 30 4 0 3 -3 0 -7z m509 -70 c-2 -9 -9 -19 -17 -21
-11 -3 -11 -1 1 7 13 10 13 11 0 11 -13 0 -13 1 0 10 19 12 19 13 16 -7z
m-589 -11 c-10 -10 -14 -22 -10 -27 5 -4 2 -5 -5 -1 -11 6 -10 12 4 27 9 10
19 19 22 19 3 0 -2 -8 -11 -18z m413 -158 c0 -8 -19 -13 -24 -6 -3 5 1 9 9 9
8 0 15 -2 15 -3z m-150 -148 c0 -3 -4 -8 -10 -11 -5 -3 -10 -1 -10 4 0 6 5 11
10 11 6 0 10 -2 10 -4z m-545 -45 c-3 -6 -11 -11 -16 -11 -5 0 -4 6 3 14 14
16 24 13 13 -3z m-78 -36 c0 -8 -4 -12 -9 -9 -5 3 -6 10 -3 15 9 13 12 11 12
-6z m583 9 c0 -8 -19 -13 -24 -6 -3 5 1 9 9 9 8 0 15 -2 15 -3z m-604 -33 c-4
-5 -1 -11 6 -13 8 -3 6 -6 -4 -10 -11 -5 -15 -2 -13 10 5 23 4 22 11 22 3 0 3
-4 0 -9z m574 -15 c0 -2 -8 -10 -17 -17 -16 -13 -17 -12 -4 4 13 16 21 21 21
13z m-613 -35 c0 -11 -5 -18 -9 -15 -4 3 -5 11 -1 19 7 21 12 19 10 -4z m513
-105 c0 -2 -7 -7 -16 -10 -8 -3 -12 -2 -9 4 6 10 25 14 25 6z m-677 -123 c-3
-7 -6 -13 -8 -13 -2 0 -5 6 -8 13 -3 8 1 14 8 14 7 0 11 -6 8 -14z m-28 -61
c-3 -3 -11 0 -18 7 -9 10 -8 11 6 5 10 -3 15 -9 12 -12z m-48 -77 c0 -8 -4
-12 -9 -9 -5 3 -6 10 -3 15 9 13 12 11 12 -6z m-17 -29 c0 -2 -7 -7 -16 -10
-8 -3 -12 -2 -9 4 6 10 25 14 25 6z m5 -55 c3 -5 2 -12 -3 -15 -5 -3 -9 1 -9
9 0 17 3 19 12 6z m9 -836 c-4 -8 -11 -12 -16 -9 -6 4 -5 10 3 15 19 12 19 11
13 -6z m57 -158 c-10 -9 -11 -8 -5 6 3 10 9 15 12 12 3 -3 0 -11 -7 -18z m703
-509 c-3 -4 -9 -8 -15 -8 -5 0 -9 4 -9 8 0 5 7 9 15 9 8 0 12 -4 9 -9z"/>
<path d="M6710 8945 c-7 -9 -15 -13 -18 -10 -3 3 -10 1 -17 -5 -6 -5 -44 -26
-85 -46 -186 -91 -444 -246 -433 -259 5 -4 2 -5 -5 -1 -8 5 -68 -30 -158 -89
-128 -86 -143 -99 -132 -113 12 -15 11 -15 -4 -4 -15 12 -28 5 -108 -53 -79
-59 -89 -69 -78 -84 11 -14 11 -14 -4 -3 -14 11 -24 6 -75 -34 -124 -101 -142
-118 -136 -127 3 -6 1 -7 -5 -3 -14 8 -234 -203 -225 -217 3 -6 1 -7 -4 -4
-13 8 -47 -29 -38 -42 3 -6 0 -9 -8 -5 -9 3 -37 -20 -76 -63 -56 -63 -82 -103
-46 -73 9 7 18 10 22 6 3 -3 1 -6 -6 -6 -7 0 -10 -4 -6 -9 3 -6 -6 -8 -22 -5
-15 3 -25 2 -21 -2 4 -3 -7 -18 -23 -31 -16 -14 -28 -27 -26 -29 2 -3 -10 -19
-27 -37 -45 -48 -136 -183 -129 -191 3 -3 1 -6 -5 -6 -5 0 -20 -15 -31 -34
-24 -37 -27 -51 -9 -40 7 4 8 3 4 -5 -4 -6 -11 -9 -15 -7 -4 3 -17 -12 -29
-33 -30 -52 -94 -222 -88 -229 3 -3 1 -11 -4 -18 -6 -6 -13 -25 -15 -40 -2
-16 -9 -47 -15 -69 -18 -69 -24 -282 -10 -377 6 -49 15 -86 19 -83 4 2 7 -6 6
-18 -4 -51 86 -274 105 -262 6 3 7 0 4 -8 -3 -8 2 -21 10 -30 9 -9 16 -19 16
-24 1 -16 40 -54 49 -49 5 4 13 1 17 -5 4 -8 3 -9 -4 -5 -7 4 -12 4 -12 0 0
-8 68 -68 120 -107 l38 -27 -23 57 c-13 32 -29 59 -36 62 -6 2 -9 -1 -5 -7 3
-6 2 -13 -3 -16 -11 -7 -9 13 2 31 8 13 -22 125 -32 119 -3 -2 -6 8 -7 22 0
15 -9 70 -18 122 -22 117 -18 356 8 464 10 38 14 76 11 85 -3 8 -3 12 1 8 4
-4 24 39 45 95 20 57 55 145 78 196 23 52 38 98 35 104 -4 7 -2 8 4 4 7 -4 20
11 35 41 13 26 35 67 50 91 15 23 24 42 20 42 -4 0 2 7 13 15 16 13 17 16 4
26 -13 9 -13 10 0 7 17 -5 123 139 114 154 -4 6 -3 8 3 5 10 -7 109 112 105
126 -1 4 3 7 9 7 5 0 7 5 3 12 -4 6 -3 8 4 5 13 -9 64 51 56 65 -4 6 -2 8 3 5
6 -4 25 10 42 31 18 20 72 78 122 128 49 50 86 95 81 99 -4 5 -2 5 4 2 6 -3
32 16 57 43 26 27 47 47 47 44 0 -4 30 21 66 55 36 34 115 103 175 153 60 50
109 95 109 100 0 4 4 7 9 6 5 -2 24 11 43 28 19 18 45 37 57 44 13 6 20 18 17
25 -3 9 0 12 10 8 19 -7 46 16 40 34 -4 9 -1 11 6 7 8 -5 9 -2 5 10 -4 11 -3
15 4 11 6 -4 8 -13 5 -21 -3 -7 45 24 107 70 62 45 148 106 192 136 91 60 104
70 88 70 -6 0 -16 -7 -23 -15z m-447 -270 c-3 -9 -8 -14 -10 -11 -3 3 -2 9 2
15 9 16 15 13 8 -4z m41 -17 c-3 -4 -11 -5 -19 -1 -21 7 -19 12 4 10 11 0 18
-5 15 -9z m-147 -55 c-9 -2 -14 -9 -11 -15 4 -7 2 -8 -5 -4 -15 10 -4 26 17
25 15 -1 15 -2 -1 -6z m-50 -45 c-3 -14 -12 -22 -25 -23 l-21 -2 22 23 c28 28
27 28 24 2z m27 -26 c3 -5 -1 -9 -9 -9 -8 0 -12 4 -9 9 3 4 7 8 9 8 2 0 6 -4
9 -8z m-109 -22 c-3 -5 -13 -6 -21 -3 -12 4 -13 8 -3 14 15 9 32 2 24 -11z
m-4 -43 c-10 -9 -11 -8 -5 6 3 10 9 15 12 12 3 -3 0 -11 -7 -18z m-205 -118
c-9 -13 -16 -18 -16 -12 0 7 5 15 11 18 6 4 8 14 4 24 -5 12 -3 13 6 4 9 -9 8
-17 -5 -34z m129 31 c-3 -5 -12 -10 -18 -10 -7 0 -6 4 3 10 19 12 23 12 15 0z
m-152 -15 c-3 -9 -8 -14 -10 -11 -3 3 -2 9 2 15 9 16 15 13 8 -4z m-12 -88
c-10 -9 -11 -8 -5 6 3 10 9 15 12 12 3 -3 0 -11 -7 -18z m-28 -52 c-3 -9 -8
-14 -10 -11 -3 3 -2 9 2 15 9 16 15 13 8 -4z m-19 -21 c3 -8 2 -12 -4 -9 -6 3
-10 10 -10 16 0 14 7 11 14 -7z m-118 -59 c-1 -8 -5 -17 -8 -21 -5 -4 -4 16 1
34 3 9 9 -1 7 -13z m44 -9 c0 -2 -7 -7 -16 -10 -8 -3 -12 -2 -9 4 6 10 25 14
25 6z m-150 -20 c0 -2 -8 -10 -17 -17 -16 -13 -17 -12 -4 4 13 16 21 21 21 13z
m109 -40 c9 -11 9 -16 -1 -22 -7 -4 -10 -4 -6 1 4 4 3 14 -3 22 -6 7 -9 13 -6
13 2 0 10 -6 16 -14z m-23 -21 c1 -8 -1 -17 -5 -19 -4 -3 -7 6 -7 19 0 25 8
25 12 0z m-166 -9 c-4 -4 -16 -4 -26 2 -16 9 -14 10 8 9 15 -1 23 -6 18 -11z
m140 6 c0 -5 -7 -9 -15 -9 -8 0 -12 4 -9 9 3 4 9 8 15 8 5 0 9 -4 9 -8z m-10
-26 c0 -2 -8 -10 -17 -17 -16 -13 -17 -12 -4 4 13 16 21 21 21 13z m-33 -51
c0 -8 -4 -12 -9 -9 -5 3 -6 10 -3 15 9 13 12 11 12 -6z m-46 -28 c-10 -9 -11
-8 -5 6 3 10 9 15 12 12 3 -3 0 -11 -7 -18z m20 -10 c-10 -9 -11 -8 -5 6 3 10
9 15 12 12 3 -3 0 -11 -7 -18z m-247 -53 c3 -8 2 -12 -4 -9 -6 3 -10 10 -10
16 0 14 7 11 14 -7z m-73 -77 c-8 -8 -14 -7 -23 2 -11 10 -9 11 6 5 15 -6 17
-4 11 6 -6 9 -4 11 4 5 9 -5 10 -10 2 -18z m-141 -193 c0 -8 -19 -13 -24 -6
-3 5 1 9 9 9 8 0 15 -2 15 -3z m121 -67 c-10 -9 -11 -8 -5 6 3 10 9 15 12 12
3 -3 0 -11 -7 -18z m-295 -106 c-4 -5 -1 -11 6 -13 8 -3 6 -6 -4 -10 -11 -5
-15 -2 -13 10 5 23 4 22 11 22 3 0 3 -4 0 -9z m192 -46 c-3 -3 -9 2 -12 12 -6
14 -5 15 5 6 7 -7 10 -15 7 -18z m27 6 c3 -5 2 -12 -3 -15 -5 -3 -9 1 -9 9 0
17 3 19 12 6z m-245 -27 c0 -8 -19 -13 -24 -6 -3 5 1 9 9 9 8 0 15 -2 15 -3z
m-79 -137 c-10 -9 -11 -8 -5 6 3 10 9 15 12 12 3 -3 0 -11 -7 -18z m184 -137
c3 -5 -1 -10 -10 -10 -9 0 -13 5 -10 10 3 6 8 10 10 10 2 0 7 -4 10 -10z
m-185 -905 c14 -19 14 -19 -2 -6 -10 7 -18 18 -18 24 0 6 1 8 3 6 1 -2 9 -13
17 -24z"/>
<path d="M7155 8490 c-43 -5 -86 -12 -95 -16 -8 -3 -34 -8 -58 -10 -24 -2 -48
-7 -55 -11 -13 -8 -18 -9 -55 -11 -13 -1 -21 -5 -19 -9 3 -5 -12 -9 -32 -9
-20 -1 -54 -10 -76 -19 -22 -10 -49 -19 -61 -20 -11 -2 -38 -11 -60 -21 -21
-9 -45 -18 -52 -20 -7 -1 -73 -32 -148 -68 -87 -43 -132 -71 -128 -78 4 -7 3
-8 -5 -4 -18 12 -123 -53 -116 -72 4 -12 3 -12 -8 -3 -11 9 -17 7 -28 -5 -8
-10 -13 -19 -11 -21 2 -3 0 -8 -4 -11 -4 -4 -4 -1 0 6 4 6 3 12 -1 12 -15 0
-83 -50 -83 -61 0 -6 -4 -8 -8 -5 -18 11 -266 -200 -255 -217 3 -6 1 -7 -5 -3
-13 8 -159 -140 -154 -156 1 -5 -2 -7 -7 -3 -10 6 -37 -34 -33 -48 1 -5 -2 -6
-7 -2 -6 3 -36 -28 -67 -70 -43 -57 -54 -79 -46 -87 7 -7 12 -16 12 -22 0 -5
-6 -2 -13 8 -13 17 -16 15 -45 -32 -17 -27 -28 -53 -25 -56 4 -3 2 -6 -3 -6
-12 0 -48 -59 -41 -67 3 -2 -4 -14 -15 -25 -15 -15 -17 -22 -7 -34 9 -12 9
-13 -2 -9 -13 5 -47 -50 -41 -67 1 -5 -2 -8 -7 -8 -8 0 -49 -99 -55 -131 -1
-8 -7 -23 -13 -34 -17 -32 -44 -135 -38 -144 3 -5 1 -11 -5 -13 -12 -4 -53
-196 -47 -220 3 -9 1 -18 -3 -20 -11 -4 -30 -241 -28 -341 1 -45 3 -64 5 -42
6 70 33 237 53 325 14 62 16 88 8 98 -9 10 -8 12 1 10 13 -3 36 49 44 95 2 12
8 31 12 42 61 151 87 222 88 233 0 6 4 12 9 12 5 0 6 5 3 10 -3 6 -2 10 3 10
19 0 20 28 2 48 -17 17 -17 21 -4 26 24 9 31 7 14 -4 -11 -7 -11 -10 -2 -10 7
0 10 -4 7 -10 -3 -5 -3 -10 2 -10 4 0 22 28 38 62 28 59 200 327 216 338 4 3
22 23 39 45 17 22 54 64 81 92 30 31 47 57 43 64 -4 7 -3 9 3 6 5 -3 36 18 67
47 50 46 57 56 48 73 -7 12 -7 24 -1 34 8 12 10 12 8 -1 -4 -36 0 -41 24 -29
27 14 102 81 102 90 0 4 4 11 9 16 5 5 6 2 1 -6 -5 -9 -3 -12 6 -9 8 3 13 11
11 17 -1 7 1 10 6 7 12 -7 64 29 55 39 -5 4 -3 5 3 2 7 -4 22 1 35 11 13 10
65 44 116 74 51 31 89 59 85 63 -4 5 -2 5 5 1 13 -7 73 19 85 38 4 6 8 8 8 4
0 -3 39 11 88 31 144 63 384 141 434 141 9 0 29 5 45 11 15 6 44 12 63 13 19
1 85 8 145 15 188 23 483 6 679 -39 27 -6 56 -8 63 -6 8 3 12 2 9 -3 -7 -11
60 -24 76 -15 7 5 8 3 3 -6 -6 -10 -4 -12 8 -7 10 3 17 3 17 -1 0 -12 109 -44
122 -36 7 4 8 3 4 -4 -4 -7 -1 -12 8 -12 8 0 16 3 19 8 2 4 2 2 1 -5 -4 -17
21 -24 36 -10 10 9 11 9 6 -1 -5 -8 13 -21 56 -39 35 -15 86 -39 115 -53 29
-15 50 -23 48 -20 -2 4 2 7 9 7 8 0 12 -5 10 -12 -5 -12 62 -50 84 -48 7 0 11
-2 8 -5 -9 -8 67 -51 79 -45 5 4 7 3 3 -2 -4 -4 32 -35 80 -68 94 -65 255
-199 310 -259 19 -21 39 -35 45 -31 6 3 7 2 4 -4 -9 -14 22 -55 36 -47 7 4 9
4 5 -1 -12 -13 72 -107 90 -100 12 4 13 3 2 -10 -19 -23 0 -18 29 8 l26 22
-24 -27 c-23 -27 -23 -28 -6 -54 14 -21 19 -24 27 -13 8 11 8 10 4 -4 -6 -18
26 -72 36 -62 3 3 5 -1 5 -7 0 -22 99 -178 108 -170 5 4 5 2 1 -5 -7 -12 18
-61 39 -75 5 -4 7 -8 3 -8 -3 0 16 -50 43 -110 27 -61 54 -129 60 -150 7 -22
16 -37 22 -33 6 3 7 1 3 -5 -9 -15 23 -124 35 -117 5 3 6 0 3 -8 -3 -8 2 -43
11 -78 9 -35 25 -107 35 -159 l19 -95 -5 70 c-12 149 -69 435 -86 435 -5 0 -7
-4 -3 -9 3 -5 0 -13 -6 -17 -8 -4 -9 -3 -5 4 4 7 1 12 -6 12 -10 0 -10 2 0 8
9 6 7 14 -8 30 -12 12 -16 22 -11 22 6 0 15 -9 21 -21 20 -36 23 -12 5 43 -40
124 -58 167 -68 161 -6 -3 -7 -1 -3 6 10 16 -3 53 -16 45 -7 -4 -8 -2 -4 5 9
15 -61 168 -81 175 -8 3 -12 10 -8 15 10 18 -130 235 -146 226 -5 -4 -6 -12
-3 -18 4 -7 3 -8 -1 -4 -12 10 -15 38 -4 31 5 -3 9 -1 9 4 0 11 -22 31 -32 29
-3 -1 -10 2 -15 7 -5 5 -3 6 5 2 31 -18 6 19 -61 87 -39 42 -68 73 -62 70 5
-2 -30 34 -80 81 -49 47 -95 86 -100 86 -6 0 -16 9 -23 21 -7 12 -15 19 -18
16 -2 -2 -21 11 -40 30 -21 19 -43 32 -51 29 -8 -3 -12 -2 -9 3 9 14 -20 32
-40 25 -14 -4 -15 -3 -5 4 16 12 -3 27 -21 16 -6 -4 -8 -3 -4 4 3 6 -25 29
-69 56 -41 25 -75 42 -75 38 0 -4 -4 -2 -8 4 -10 15 -109 64 -116 57 -3 -4 -6
-1 -6 5 0 15 -150 84 -167 78 -8 -3 -12 -2 -9 3 15 23 -346 136 -544 171 -142
24 -459 35 -595 20z m680 -130 c-3 -5 -12 -10 -18 -10 -7 0 -6 4 3 10 19 12
23 12 15 0z m280 0 c-3 -5 -12 -10 -18 -10 -7 0 -6 4 3 10 19 12 23 12 15 0z
m-1331 -69 c4 -5 -3 -7 -14 -4 -23 6 -26 13 -6 13 8 0 17 -4 20 -9z m-264 -27
c0 -8 -5 -12 -10 -9 -6 4 -8 11 -5 16 9 14 15 11 15 -7z m1837 -80 c-3 -3 -12
-4 -19 -1 -8 3 -5 6 6 6 11 1 17 -2 13 -5z m168 -13 c3 -5 1 -12 -5 -16 -5 -3
-10 1 -10 9 0 18 6 21 15 7z m16 -24 c-10 -9 -11 -8 -5 6 3 10 9 15 12 12 3
-3 0 -11 -7 -18z m-2135 -2 c-3 -23 -11 -26 -37 -15 -23 10 -23 10 4 5 15 -3
27 -2 26 2 -2 12 1 23 5 23 2 0 3 -7 2 -15z m2208 -48 c7 -6 6 -7 -4 -4 -8 2
-16 12 -17 23 -2 13 -1 15 4 4 3 -8 11 -19 17 -23z m19 -34 c-3 -7 -6 -13 -8
-13 -2 0 -5 6 -8 13 -3 8 1 14 8 14 7 0 11 -6 8 -14z m-2416 0 c-4 -3 0 -11 9
-17 13 -10 13 -12 -5 -12 -11 0 -17 4 -15 8 3 4 -1 8 -8 8 -9 0 -9 3 2 10 17
11 26 13 17 3z m2527 -39 c3 -8 2 -12 -4 -9 -6 3 -10 10 -10 16 0 14 7 11 14
-7z m70 -106 c-5 -8 -2 -9 9 -5 17 6 31 -5 20 -16 -9 -9 -44 13 -38 24 4 5 8
9 11 9 3 0 2 -5 -2 -12z m-2794 -2 c0 -2 -8 -10 -17 -17 -16 -13 -17 -12 -4 4
13 16 21 21 21 13z m2847 -31 c0 -8 -4 -12 -9 -9 -5 3 -6 10 -3 15 9 13 12 11
12 -6z m-2951 -10 c-1 -8 -5 -17 -8 -21 -5 -4 -4 16 1 34 3 9 9 -1 7 -13z m24
-50 c0 -2 -6 -8 -13 -14 -10 -8 -14 -7 -14 2 0 8 6 14 14 14 7 0 13 -1 13 -2z
m-135 -54 c3 -5 2 -12 -3 -15 -5 -3 -9 1 -9 9 0 17 3 19 12 6z m0 -51 c-12 -5
-14 -9 -6 -9 8 -1 12 -3 9 -6 -3 -3 -13 -2 -22 1 -14 5 -15 9 -4 15 7 5 20 8
28 8 10 0 8 -3 -5 -9z m-90 -28 c-3 -3 -11 0 -18 7 -9 10 -8 11 6 5 10 -3 15
-9 12 -12z m25 -18 c0 -1 -11 -9 -24 -17 -22 -15 -24 -15 -21 1 2 9 4 17 4 17
3 2 41 0 41 -1z m-64 -33 c-3 -5 1 -11 9 -15 8 -3 15 -10 15 -16 0 -5 -9 -2
-19 7 -17 14 -20 33 -5 33 3 0 3 -4 0 -9z m-16 -25 c0 -2 -7 -7 -16 -10 -8 -3
-12 -2 -9 4 6 10 25 14 25 6z m3537 -31 c0 -8 -4 -12 -9 -9 -5 3 -6 10 -3 15
9 13 12 11 12 -6z m-3520 -10 c0 -8 -3 -13 -5 -10 -3 3 -15 -3 -26 -12 -15
-13 -14 -10 3 10 29 32 28 31 28 12z m-63 -3 c3 -5 -1 -9 -9 -9 -8 0 -12 4 -9
9 3 4 7 8 9 8 2 0 6 -4 9 -8z m-49 -91 c-3 -6 -11 -11 -17 -11 -6 0 -6 6 2 15
14 17 26 13 15 -4z m3750 -10 c-3 -6 -11 -11 -16 -11 -5 0 -4 6 3 14 14 16 24
13 13 -3z m40 -53 c4 -3 2 -9 -3 -12 -5 -3 -15 1 -21 8 -10 11 -9 14 3 12 9
-1 18 -5 21 -8z m-3907 -41 c8 -10 6 -13 -7 -13 -11 0 -17 6 -14 13 3 7 6 13
8 13 1 0 7 -6 13 -13z m3934 6 c-6 -2 -9 -10 -6 -15 4 -7 2 -8 -5 -4 -13 9 -5
26 12 25 9 0 8 -2 -1 -6z m72 -115 c-2 -3 -13 -6 -24 -5 -24 2 -18 13 9 13 11
0 18 -4 15 -8z m18 -36 c-3 -10 -1 -13 6 -8 7 4 12 5 12 2 0 -15 -20 -14 -29
2 -7 14 -6 19 4 19 7 0 11 -7 7 -15z m-4032 5 c0 -2 -10 -12 -21 -23 -22 -19
-22 -19 -8 4 12 19 29 30 29 19z m4045 -46 c3 -5 2 -12 -3 -15 -5 -3 -9 1 -9
9 0 17 3 19 12 6z m55 -117 c0 -8 -19 -13 -24 -6 -3 5 1 9 9 9 8 0 15 -2 15
-3z m-4236 -52 c2 -4 0 -14 -6 -22 -8 -12 -9 -12 -5 2 3 9 1 19 -6 22 -9 3 -9
5 0 5 6 1 14 -3 17 -7z m-30 -48 c3 -8 2 -12 -4 -9 -6 3 -10 10 -10 16 0 14 7
11 14 -7z m4301 -10 c9 -15 12 -23 6 -20 -11 7 -35 46 -28 46 3 0 12 -12 22
-26z m-4332 -109 c-3 -9 -8 -14 -10 -11 -3 3 -2 9 2 15 9 16 15 13 8 -4z m-18
-73 c-3 -3 -11 0 -18 7 -9 10 -8 11 6 5 10 -3 15 -9 12 -12z"/>
<path d="M7340 8133 c-153 -8 -394 -48 -459 -76 -14 -5 -29 -10 -33 -9 -10 2
-142 -44 -169 -59 -13 -7 -32 -14 -42 -16 -27 -5 -191 -89 -287 -149 -151 -93
-376 -277 -363 -297 3 -5 1 -7 -5 -3 -5 3 -26 -13 -45 -36 -29 -35 -33 -45
-24 -58 10 -13 10 -13 -5 -2 -15 12 -24 4 -78 -64 -90 -113 -142 -193 -134
-206 4 -6 3 -8 -4 -5 -13 9 -65 -79 -56 -95 4 -6 3 -8 -3 -5 -6 4 -14 0 -17
-9 -9 -22 -8 -26 6 -18 7 4 8 3 4 -5 -4 -6 -11 -9 -16 -6 -5 3 -16 -8 -25 -24
-18 -36 -19 -55 -2 -45 7 4 9 3 4 -2 -5 -5 -14 -9 -20 -9 -7 0 -12 -10 -11
-22 0 -12 -2 -20 -6 -18 -11 7 -52 -103 -44 -116 4 -8 3 -9 -4 -5 -7 4 -12 1
-12 -9 0 -11 5 -15 16 -11 9 3 12 2 9 -5 -4 -6 -13 -8 -20 -5 -14 5 -39 -50
-29 -65 3 -5 0 -9 -6 -9 -7 0 -9 -7 -6 -17 4 -9 2 -19 -4 -23 -6 -4 -12 -18
-14 -31 -2 -13 -6 -31 -9 -39 -3 -8 -11 -41 -17 -73 -9 -45 -9 -61 1 -73 6 -8
9 -17 5 -21 -3 -3 -6 -1 -6 5 0 7 -4 12 -8 12 -13 0 -32 -174 -32 -284 0 -53
2 -96 4 -96 4 0 197 105 236 129 17 10 27 21 22 26 -4 5 -1 5 7 0 9 -5 19 -2
28 10 7 11 13 15 13 10 0 -5 7 0 16 11 8 10 13 13 9 7 -4 -9 -1 -11 9 -7 9 3
13 11 9 17 -3 6 -1 7 5 3 15 -9 95 38 85 49 -5 4 -2 5 5 1 12 -7 80 27 94 48
4 6 8 8 8 3 0 -4 31 9 70 28 38 19 69 39 69 43 -3 19 2 32 12 32 8 0 8 -5 -1
-15 -7 -8 -9 -15 -5 -15 18 0 155 73 150 80 -2 4 5 7 18 6 12 0 21 4 20 11 -2
7 3 10 11 7 14 -6 116 41 127 58 3 5 9 9 13 9 17 -3 56 12 56 22 0 6 3 8 6 5
5 -6 42 9 169 67 28 12 88 37 135 56 47 18 87 35 90 38 3 3 12 7 20 9 36 6
249 86 245 92 -2 3 6 6 19 6 29 0 246 66 241 73 -1 3 10 6 25 7 15 1 36 5 46
9 11 4 32 9 48 11 30 4 49 21 40 35 -2 4 1 11 7 15 8 5 9 3 4 -6 -6 -10 -3
-12 11 -7 18 7 18 6 -1 -9 -23 -19 -43 -22 173 25 308 67 454 84 717 85 189 0
257 -4 320 -17 95 -20 98 -20 89 -5 -4 7 -3 8 5 4 6 -4 9 -11 6 -16 -3 -4 8
-10 24 -12 20 -3 27 0 24 8 -2 7 0 15 6 19 6 3 9 0 5 -8 -3 -8 0 -18 6 -22 7
-4 8 -10 3 -14 -5 -3 -47 -114 -93 -246 -46 -132 -105 -301 -131 -375 -27 -75
-44 -139 -40 -145 11 -14 10 -46 -1 -39 -5 4 -7 12 -4 20 3 8 2 14 -3 14 -7 0
-33 -73 -36 -100 0 -3 -7 -15 -14 -28 -7 -13 -10 -30 -7 -38 3 -8 2 -13 -2
-10 -4 2 -12 -11 -18 -30 l-11 -34 410 0 c395 1 412 1 452 21 63 31 74 78 59
241 -4 37 -11 65 -15 62 -5 -3 -6 2 -3 10 6 17 -30 201 -48 245 -6 14 -10 32
-9 39 1 6 -3 12 -9 12 -6 0 -9 4 -6 9 6 9 -25 97 -65 186 -12 28 -22 53 -21
56 0 3 -30 62 -68 130 -48 88 -73 124 -85 122 -12 -1 -14 2 -7 9 13 13 -15 61
-31 51 -5 -3 -7 -1 -4 5 17 27 -326 410 -380 425 -4 1 -20 14 -35 29 -47 46
-208 149 -220 142 -6 -4 -8 -3 -5 3 4 6 -15 22 -42 36 -36 20 -50 24 -59 15
-9 -9 -15 -9 -24 1 -11 10 -10 11 5 6 10 -4 17 -2 17 4 0 10 -7 13 -26 10 -4
0 -10 4 -13 10 -9 14 -113 61 -123 55 -4 -3 -8 0 -8 7 0 6 -8 9 -20 6 -11 -3
-18 -1 -15 4 5 7 -10 13 -55 24 -3 1 -18 7 -35 14 -154 64 -539 117 -755 104z
m-409 -92 c-7 -5 -11 -14 -7 -20 5 -7 1 -9 -9 -5 -12 5 -13 9 -4 20 6 8 17 14
23 14 6 0 5 -4 -3 -9z m1057 5 c-2 -1 -12 -8 -22 -16 -11 -8 -17 -10 -13 -3 4
6 1 13 -5 16 -7 2 0 4 15 4 15 0 27 0 25 -1z m28 -32 c2 -11 -1 -12 -10 -5 -7
6 -17 7 -22 3 -4 -4 -2 1 5 11 15 19 24 16 27 -9z m-1171 6 c3 -6 -1 -7 -9 -4
-18 7 -21 14 -7 14 6 0 13 -4 16 -10z m1333 -65 c-3 -3 -9 2 -12 12 -6 14 -5
15 5 6 7 -7 10 -15 7 -18z m136 -23 c3 -5 -1 -9 -9 -9 -8 0 -12 4 -9 9 3 4 7
8 9 8 2 0 6 -4 9 -8z m-1761 -29 c-6 -15 -29 -17 -38 -3 -4 6 1 7 11 3 10 -4
15 -2 11 4 -3 5 0 10 7 10 8 0 12 -6 9 -14z m-37 -25 c4 -6 3 -8 -4 -5 -15 10
-43 -3 -35 -16 4 -6 1 -7 -7 -2 -10 6 -9 11 5 22 23 16 32 16 41 1z m1899 -9
c-4 -5 -12 -9 -18 -8 -9 0 -8 2 1 6 6 2 9 10 6 15 -4 7 -2 8 5 4 6 -4 9 -12 6
-17z m-2079 -91 c4 -7 4 -10 -1 -6 -4 4 -15 2 -24 -5 -14 -11 -14 -10 -2 6 16
20 18 21 27 5z m2188 -6 c3 -5 -1 -9 -9 -9 -8 0 -12 4 -9 9 3 4 7 8 9 8 2 0 6
-4 9 -8z m-2364 -106 c0 -2 -8 -10 -17 -17 -16 -13 -17 -12 -4 4 13 16 21 21
21 13z m-10 -46 c-6 -11 -13 -20 -16 -20 -2 0 0 9 6 20 6 11 13 20 16 20 2 0
0 -9 -6 -20z m-20 6 c0 -2 -8 -10 -17 -17 -16 -13 -17 -12 -4 4 13 16 21 21
21 13z m-80 -50 c0 -2 -7 -7 -16 -10 -8 -3 -12 -2 -9 4 6 10 25 14 25 6z
m2805 -6 c3 -6 -1 -7 -9 -4 -18 7 -21 14 -7 14 6 0 13 -4 16 -10z m-2873 -67
c-6 -2 -9 -10 -6 -15 4 -7 2 -8 -5 -4 -13 9 -5 26 12 25 9 0 8 -2 -1 -6z
m2953 -12 c3 -5 2 -12 -3 -15 -5 -3 -9 1 -9 9 0 17 3 19 12 6z m-2950 -31 c-3
-5 -12 -10 -18 -10 -7 0 -6 4 3 10 19 12 23 12 15 0z m752 -116 c-3 -3 -12 -4
-19 -1 -8 3 -5 6 6 6 11 1 17 -2 13 -5z m158 -41 c-133 -36 -164 -47 -159 -54
3 -5 -1 -7 -8 -4 -7 3 -44 -6 -82 -20 -38 -14 -71 -25 -73 -25 -2 0 -2 -10 2
-22 5 -20 5 -21 -5 -5 -10 16 -21 13 -130 -44 -66 -34 -118 -65 -115 -69 2 -4
-2 -7 -9 -7 -16 0 -148 -87 -187 -124 -16 -15 -29 -25 -29 -21 0 3 -9 -3 -20
-13 -20 -19 -28 -41 -10 -30 16 10 12 -1 -6 -15 -8 -8 -14 -9 -13 -4 5 26 -6
22 -61 -26 -33 -29 -58 -56 -55 -60 3 -4 -3 -14 -12 -21 -12 -10 -14 -10 -9
-1 20 34 -19 2 -111 -91 -127 -128 -178 -176 -169 -159 4 7 2 20 -5 28 -10 12
-9 13 5 8 9 -3 16 -1 16 4 0 6 14 41 32 78 31 64 31 67 13 80 -10 8 -14 14 -8
14 7 0 15 -5 18 -10 4 -6 11 -8 16 -4 5 3 7 9 4 14 -3 4 2 10 10 14 8 3 15 12
15 20 0 8 3 16 8 18 4 2 26 28 49 58 48 64 109 128 176 187 27 23 46 46 43 52
-4 5 -1 13 5 17 8 4 9 3 5 -4 -14 -23 14 -12 66 25 29 21 56 42 60 48 4 5 8 7
8 3 0 -4 21 5 48 20 26 15 66 36 89 46 23 10 40 23 36 29 -3 6 -1 7 5 3 16 -9
188 51 184 66 -2 8 0 9 10 0 10 -8 26 -8 58 0 53 12 260 25 310 19 l35 -4 -50
-14z m953 -38 c40 -9 70 -21 67 -25 -3 -5 -12 -7 -20 -3 -8 3 -15 0 -15 -5 0
-6 -9 -9 -21 -7 -21 4 -269 -48 -318 -67 -14 -5 -29 -15 -33 -21 -6 -9 -8 -9
-8 0 0 14 -25 8 -220 -55 -80 -25 -148 -50 -151 -55 -3 -5 -10 -8 -15 -7 -19
3 -112 -34 -107 -43 3 -6 2 -7 -4 -4 -11 7 -83 -13 -83 -23 0 -4 -6 -7 -12 -7
-23 0 -168 -65 -163 -73 3 -4 -3 -14 -13 -21 -15 -13 -16 -12 -3 4 17 22 2 22
-43 0 -19 -9 -32 -21 -29 -26 4 -6 1 -7 -6 -2 -16 9 -272 -115 -264 -129 3 -5
1 -6 -6 -2 -11 7 -220 -97 -232 -116 -3 -5 -8 -9 -10 -7 -9 5 -49 -13 -49 -22
0 -6 5 -7 12 -3 7 4 8 3 4 -5 -5 -8 -12 -9 -19 -3 -8 6 -71 -24 -187 -91 -96
-55 -177 -102 -180 -106 -9 -11 -73 -42 -77 -37 -2 2 20 27 49 56 29 29 52 57
50 61 -1 5 1 8 6 7 13 -5 82 64 75 76 -3 6 -2 8 2 3 11 -10 76 53 68 66 -3 6
-1 7 5 3 6 -3 31 12 57 34 26 22 83 68 128 102 45 34 84 64 87 67 3 3 14 11
25 18 11 6 19 16 17 23 -1 6 2 9 8 5 14 -9 161 85 153 98 -3 6 -1 7 6 3 11 -7
79 28 92 47 3 5 8 8 10 6 9 -5 49 13 49 23 0 6 3 9 6 5 11 -10 85 33 78 45 -5
7 -3 8 5 3 11 -6 105 28 121 45 3 3 12 6 20 8 23 5 184 66 190 72 3 3 10 6 15
6 6 1 62 15 125 32 63 17 162 38 220 47 58 9 112 18 120 20 41 11 350 -4 418
-20z m-1513 -5 c-3 -5 -12 -10 -18 -10 -7 0 -6 4 3 10 19 12 23 12 15 0z m439
-8 c3 -5 -1 -9 -9 -9 -8 0 -12 4 -9 9 3 4 7 8 9 8 2 0 6 -4 9 -8z m-491 -17
c-3 -9 -8 -14 -10 -11 -3 3 -2 9 2 15 9 16 15 13 8 -4z m46 2 c-2 -1 -13 -9
-24 -17 -19 -14 -19 -14 -6 3 7 9 18 17 24 17 6 0 8 -1 6 -3z m-599 -57 c-8
-5 -19 -10 -25 -10 -5 0 -3 5 5 10 8 5 20 10 25 10 6 0 3 -5 -5 -10z m471 -13
c-10 -9 -11 -8 -5 6 3 10 9 15 12 12 3 -3 0 -11 -7 -18z m644 -7 c-3 -5 -12
-10 -18 -10 -7 0 -6 4 3 10 19 12 23 12 15 0z m-1111 -11 c-2 -4 1 -9 8 -11 7
-3 4 -7 -7 -12 -11 -4 -16 -4 -12 0 4 4 2 12 -3 19 -7 8 -5 12 5 12 8 0 12 -4
9 -8z m856 -33 c0 -10 -28 0 -45 17 -20 19 -20 19 13 3 17 -9 32 -18 32 -20z
m40 24 c0 -5 -5 -10 -11 -10 -5 0 -7 5 -4 10 3 6 8 10 11 10 2 0 4 -4 4 -10z
m-106 -8 c2 -4 -4 -8 -14 -8 -10 0 -16 4 -14 8 3 4 9 8 14 8 5 0 11 -4 14 -8z
m152 -28 c-1 -8 -6 -17 -12 -21 -5 -4 -6 -4 -2 1 4 5 3 14 -2 21 -7 8 -5 12 4
12 8 0 13 -6 12 -13z m1239 -14 c3 -6 -1 -7 -9 -4 -18 7 -21 14 -7 14 6 0 13
-4 16 -10z m1320 -11 c11 -16 1 -19 -13 -3 -7 8 -8 14 -3 14 5 0 13 -5 16 -11z
m-1915 -19 c6 -11 8 -20 6 -20 -3 0 -10 9 -16 20 -6 11 -8 20 -6 20 3 0 10 -9
16 -20z m193 -45 c4 -8 3 -16 -1 -19 -4 -3 -9 4 -9 15 -2 23 3 25 10 4z m1758
-2 c13 -16 12 -17 -3 -4 -10 7 -18 15 -18 17 0 8 8 3 21 -13z m-2139 -10 c-6
-2 -9 -10 -6 -15 4 -7 2 -8 -5 -4 -13 9 -5 26 12 25 9 0 8 -2 -1 -6z m-1182
-7 c0 -2 -8 -10 -17 -17 -16 -13 -17 -12 -4 4 13 16 21 21 21 13z m326 -11
c-1 -8 -5 -17 -8 -21 -5 -4 -4 16 1 34 3 9 9 -1 7 -13z m-42 -10 c-10 -8 -23
-15 -28 -15 -6 0 -1 7 10 15 10 8 23 15 28 15 6 0 1 -7 -10 -15z m820 0 c-4
-8 -11 -12 -16 -9 -6 4 -5 10 3 15 19 12 19 11 13 -6z m50 7 c2 -4 -4 -8 -14
-8 -10 0 -16 4 -14 8 3 4 9 8 14 8 5 0 11 -4 14 -8z m-749 -50 c-3 -3 -11 0
-18 7 -9 10 -8 11 6 5 10 -3 15 -9 12 -12z m-500 -21 c3 -5 2 -12 -3 -15 -5
-3 -9 1 -9 9 0 17 3 19 12 6z m989 -17 c3 -8 2 -12 -4 -9 -6 3 -10 10 -10 16
0 14 7 11 14 -7z m-1044 -54 c-6 -10 -15 -22 -21 -26 -6 -3 -4 5 5 18 9 14 13
28 9 33 -5 4 -2 5 5 1 9 -5 9 -13 2 -26z m3545 -10 c-3 -5 -12 -10 -18 -10 -7
0 -6 4 3 10 19 12 23 12 15 0z m-3231 -58 c2 -4 -4 -8 -14 -8 -10 0 -16 4 -14
8 3 4 9 8 14 8 5 0 11 -4 14 -8z m-194 -100 c0 -1 -9 2 -20 8 -11 6 -20 15
-20 20 0 6 9 2 20 -7 11 -10 20 -19 20 -21z m3490 -16 c0 -3 -4 -8 -10 -11 -5
-3 -10 -1 -10 4 0 6 5 11 10 11 6 0 10 -2 10 -4z m-3552 -51 c-3 -3 -9 2 -12
12 -6 14 -5 15 5 6 7 -7 10 -15 7 -18z m67 -6 c-4 -5 -12 -9 -18 -8 -9 0 -8 2
1 6 6 2 9 10 6 15 -4 7 -2 8 5 4 6 -4 9 -12 6 -17z m495 7 c0 -3 -4 -8 -10
-11 -5 -3 -10 -1 -10 4 0 6 5 11 10 11 6 0 10 -2 10 -4z m-625 -24 c-3 -3 -11
0 -18 7 -9 10 -8 11 6 5 10 -3 15 -9 12 -12z m72 -14 c-3 -8 -6 -5 -6 6 -1 11
2 17 5 13 3 -3 4 -12 1 -19z m-112 3 c3 -5 2 -12 -3 -15 -5 -3 -9 1 -9 9 0 17
3 19 12 6z m546 -34 c-10 -9 -11 -8 -5 6 3 10 9 15 12 12 3 -3 0 -11 -7 -18z
m-564 -82 c0 -8 -3 -13 -5 -10 -3 3 -15 -3 -26 -12 -15 -14 -18 -14 -8 -2 6 9
8 20 4 24 -4 5 -2 5 5 1 6 -3 14 -2 18 4 9 14 12 13 12 -5z m221 -13 c-11 -13
-10 -15 5 -9 9 3 17 3 18 -1 0 -4 2 -15 4 -25 2 -9 -1 -15 -6 -11 -5 3 -7 9
-4 14 3 4 -5 10 -17 13 -17 5 -19 9 -10 20 7 8 8 18 4 22 -4 5 -1 5 6 1 11 -6
11 -11 0 -24z m-41 -28 c-3 -3 -12 -4 -19 -1 -8 3 -5 6 6 6 11 1 17 -2 13 -5z
m34 -27 c-10 -9 -11 -8 -5 6 3 10 9 15 12 12 3 -3 0 -11 -7 -18z m-151 -27 c0
-5 -2 -10 -4 -10 -3 0 -8 5 -11 10 -3 6 -1 10 4 10 6 0 11 -4 11 -10z m-4 -62
c4 -7 4 -10 -1 -6 -4 4 -14 0 -22 -10 -13 -15 -13 -15 -3 6 12 25 16 27 26 10z
m-131 -27 c3 -5 2 -12 -3 -15 -5 -3 -9 1 -9 9 0 17 3 19 12 6z m-168 -137 c-3
-3 -12 -4 -19 -1 -8 3 -5 6 6 6 11 1 17 -2 13 -5z"/>
<path d="M7830 6688 c-41 -21 -83 -73 -73 -90 2 -5 0 -8 -5 -8 -5 0 -10 -20
-10 -44 -1 -32 7 -56 28 -90 16 -25 34 -46 40 -46 6 0 8 6 4 13 -4 7 -3 9 2 4
5 -5 9 -14 9 -20 0 -6 17 -15 38 -20 44 -11 113 4 109 22 -1 7 1 10 6 7 15 -9
53 25 68 60 8 18 14 50 14 71 0 48 -29 108 -52 107 -9 -1 -14 4 -12 11 6 14
-63 45 -99 45 -13 0 -43 -10 -67 -22z m62 -16 c-7 -2 -10 -7 -7 -12 3 -4 -2
-11 -10 -14 -12 -4 -13 -2 -6 13 6 10 7 21 3 25 -3 4 2 4 13 0 11 -5 14 -9 7
-12z m76 5 c8 -10 6 -13 -11 -14 -12 0 -16 1 -9 4 6 3 10 9 6 14 -8 14 2 11
14 -4z m73 -84 c13 -16 12 -17 -3 -4 -10 7 -18 15 -18 17 0 8 8 3 21 -13z
m-15 -83 c0 -12 -4 -16 -9 -11 -5 5 -6 14 -3 20 10 15 12 14 12 -9z m-21 -59
c3 -5 0 -13 -6 -17 -7 -4 -9 -3 -5 4 3 5 0 13 -6 15 -9 4 -10 6 -1 6 6 1 14
-3 18 -8z m-58 -43 c-3 -8 -6 -5 -6 6 -1 11 2 17 5 13 3 -3 4 -12 1 -19z"/>
<path d="M7448 6543 c-10 -2 -18 -9 -18 -14 0 -6 -4 -8 -9 -5 -4 3 -16 -3 -26
-14 -10 -11 -15 -20 -11 -20 4 0 0 -7 -8 -16 -10 -9 -16 -33 -16 -60 0 -38 6
-50 39 -84 32 -34 45 -40 79 -40 47 0 74 8 66 21 -3 5 1 6 9 3 9 -3 23 6 35
23 23 33 42 110 23 99 -7 -5 -9 -1 -5 9 8 21 -20 62 -59 85 -31 19 -62 23 -99
13z m85 -36 c3 -8 -1 -14 -8 -14 -7 0 -11 6 -8 14 3 7 6 13 8 13 2 0 5 -6 8
-13z m43 -150 c1 -7 -7 -14 -18 -14 -20 -2 -20 -1 -2 13 19 14 19 14 0 12 -11
-2 -20 4 -21 14 -3 16 -1 16 18 3 11 -8 22 -20 23 -28z m-144 -21 c7 4 8 2 4
-5 -9 -13 -26 -5 -25 12 0 9 2 8 6 -1 2 -6 10 -9 15 -6z"/>
<path d="M7060 6391 c-44 -43 -42 -101 4 -147 38 -38 70 -43 116 -19 97 50 62
189 -48 194 -35 2 -48 -3 -72 -28z m20 -26 c-5 -7 -7 -15 -3 -19 4 -4 -1 -4
-12 0 -11 5 -14 9 -7 12 7 2 10 7 8 11 -3 4 1 8 9 8 10 0 12 -4 5 -12z"/>
<path d="M6840 6003 c-88 -15 -210 -43 -235 -54 -16 -6 -38 -14 -48 -16 -10
-2 -28 -9 -40 -15 -22 -12 -28 -14 -48 -17 -5 0 -7 -6 -4 -11 4 -6 11 -7 17
-4 7 4 8 2 4 -4 -5 -9 -12 -9 -25 0 -15 9 -34 3 -107 -37 -92 -49 -134 -75
-121 -75 4 0 55 14 114 31 60 17 117 32 128 33 11 2 58 10 105 19 164 31 318
40 442 26 138 -15 139 -15 158 -22 16 -6 181 -60 190 -62 3 -1 16 -6 30 -12
108 -46 216 -83 227 -78 8 2 12 1 9 -3 -3 -5 32 -20 77 -35 180 -57 284 -74
392 -62 54 5 65 10 61 22 -5 12 -4 13 7 4 17 -14 111 15 100 31 -3 7 -1 8 5 4
11 -6 92 28 92 39 0 6 -49 -5 -65 -13 -29 -17 -247 -18 -305 -2 -25 7 -50 13
-57 14 -7 1 -16 5 -19 9 -12 12 -46 8 -38 -5 4 -7 3 -8 -5 -4 -6 4 -9 11 -6
16 6 10 -23 22 -36 14 -5 -3 -9 -1 -9 5 0 9 -68 37 -82 33 -5 -1 -8 2 -8 7 0
17 -40 23 -58 9 -15 -11 -15 -11 -5 3 11 14 8 18 -25 33 -21 9 -45 18 -54 20
-9 1 -22 7 -29 12 -25 19 -100 45 -111 38 -6 -4 -8 -2 -4 4 8 13 -59 36 -75
26 -7 -4 -9 -3 -5 4 8 13 -90 47 -198 67 -72 14 -274 19 -336 8z m-60 -37 c0
-2 -7 -7 -16 -10 -8 -3 -12 -2 -9 4 6 10 25 14 25 6z m-79 -23 c13 -16 12 -17
-3 -4 -10 7 -18 15 -18 17 0 8 8 3 21 -13z m592 -14 c-8 -8 -13 -7 -18 2 -5 8
-4 10 3 5 7 -4 12 -2 12 5 0 7 3 9 7 6 4 -4 2 -12 -4 -18z m-178 -19 c-3 -5
-1 -10 6 -10 7 0 10 -2 7 -5 -3 -3 -13 -2 -22 1 -14 5 -15 9 -4 15 17 11 20
11 13 -1z m110 -10 c-3 -5 -14 -10 -23 -9 -14 0 -13 2 3 9 27 11 27 11 20 0z
m-844 -73 c-10 -9 -11 -8 -5 6 3 10 9 15 12 12 3 -3 0 -11 -7 -18z m1232 -32
c4 -8 3 -16 -1 -19 -4 -3 -9 4 -9 15 -2 23 3 25 10 4z m37 -9 c0 -2 -8 -10
-17 -17 -16 -13 -17 -12 -4 4 13 16 21 21 21 13z m25 -56 c-3 -5 -12 -10 -18
-10 -7 0 -6 4 3 10 19 12 23 12 15 0z m180 -28 c-3 -3 -11 0 -18 7 -9 10 -8
11 6 5 10 -3 15 -9 12 -12z m7 -47 c-3 -5 -7 -4 -10 3 -2 7 -8 10 -13 7 -5 -4
-6 1 -3 9 5 12 9 13 19 3 7 -7 10 -16 7 -22z"/>
<path d="M6775 5784 c-129 -18 -285 -53 -285 -64 0 -4 -6 -8 -12 -7 -35 1 -49
-4 -42 -15 4 -7 3 -8 -5 -4 -6 4 -42 -3 -79 -15 -37 -13 -73 -24 -81 -25 -29
-5 -117 -26 -131 -31 -8 -3 -24 -7 -35 -9 -238 -35 -385 -55 -445 -61 -88 -8
-78 -12 85 -40 119 -20 437 -23 530 -4 138 27 274 65 268 74 -3 6 -1 7 5 3 7
-4 58 3 114 16 88 19 132 23 298 23 207 0 330 -6 330 -16 0 -4 25 -10 55 -14
30 -3 121 -21 202 -40 82 -18 149 -32 151 -30 3 3 -117 75 -175 104 -24 12
-43 18 -43 14 0 -5 -4 -3 -8 3 -12 17 -120 57 -133 48 -8 -4 -9 -3 -5 4 6 11
-8 17 -60 27 -10 2 -19 4 -19 5 0 2 -30 9 -55 14 -8 2 -22 6 -30 9 -58 22
-315 42 -395 31z m405 -64 c0 -5 -5 -10 -11 -10 -5 0 -7 5 -4 10 3 6 8 10 11
10 2 0 4 -4 4 -10z m-785 -110 c-3 -5 -12 -10 -18 -10 -7 0 -6 4 3 10 19 12
23 12 15 0z m1155 -30 c6 -11 8 -20 6 -20 -3 0 -10 9 -16 20 -6 11 -8 20 -6
20 3 0 10 -9 16 -20z m-1133 -6 c-3 -3 -12 -4 -19 -1 -8 3 -5 6 6 6 11 1 17
-2 13 -5z m1213 -20 c0 -2 -8 0 -19 5 -10 6 -22 7 -26 3 -5 -4 -5 -1 -1 6 5 9
12 9 27 2 10 -6 19 -13 19 -16z m-1255 6 c3 -6 -1 -7 -9 -4 -18 7 -21 14 -7
14 6 0 13 -4 16 -10z"/>
<path d="M2650 4765 l0 -545 75 0 74 0 5 273 c5 298 6 328 18 321 5 -3 5 -11
1 -17 -3 -7 3 -4 15 7 12 10 19 23 15 29 -3 5 -2 7 4 4 5 -4 19 1 29 11 22 20
38 23 119 25 46 2 68 -3 90 -18 17 -11 34 -18 38 -17 5 1 6 -2 2 -8 -3 -5 -2
-10 3 -10 5 0 9 -6 10 -12 1 -7 6 -33 11 -58 6 -25 10 -154 11 -287 l0 -243
76 0 76 0 -4 288 c-4 235 -8 297 -22 339 -19 61 -86 139 -110 130 -9 -4 -19 1
-24 10 -12 20 -131 29 -188 14 -49 -13 -136 -69 -128 -82 3 -5 0 -8 -8 -7 -7
2 -12 -2 -11 -8 1 -6 -5 -11 -13 -11 -12 0 -14 34 -14 209 l0 208 -75 0 -75 0
0 -545z m584 159 c3 -8 2 -12 -4 -9 -6 3 -10 10 -10 16 0 14 7 11 14 -7z
m-361 -9 c-3 -9 -8 -14 -10 -11 -3 3 -2 9 2 15 9 16 15 13 8 -4z m302 -84 c3
-5 2 -12 -3 -15 -5 -3 -9 1 -9 9 0 17 3 19 12 6z"/>
<path d="M5510 5111 c0 -140 -3 -202 -12 -207 -6 -4 -8 -3 -4 4 7 12 -26 37
-94 73 -39 20 -59 24 -145 24 -90 0 -105 -3 -152 -28 -29 -15 -53 -32 -53 -38
0 -5 6 -7 13 -3 6 4 8 3 4 -2 -4 -4 -18 -9 -30 -9 -14 0 -21 -5 -19 -15 2 -8
0 -12 -4 -8 -4 4 -13 3 -21 -3 -10 -9 -11 -15 -1 -26 6 -8 7 -13 2 -12 -23 4
-36 -2 -30 -16 3 -8 0 -14 -7 -12 -7 1 -11 -6 -11 -15 1 -10 -3 -15 -9 -11 -6
4 -8 -2 -5 -15 4 -12 2 -20 -2 -17 -15 9 -34 -76 -34 -155 0 -124 19 -188 81
-273 28 -38 39 -46 57 -42 13 4 16 3 9 -2 -10 -7 -8 -13 7 -25 31 -28 80 -49
92 -42 6 4 8 3 5 -3 -14 -23 137 -32 206 -12 40 11 41 12 28 38 -7 13 -6 18 4
18 8 0 12 -4 9 -9 -3 -4 -2 -13 1 -19 8 -12 44 9 88 49 l27 26 0 -52 0 -52 75
0 75 0 0 545 0 545 -75 0 -75 0 0 -199z m-400 -173 c0 -6 -6 -5 -15 2 -8 7
-15 14 -15 16 0 2 7 1 15 -2 8 -4 15 -11 15 -16z m-40 -34 c0 -8 -19 -13 -24
-6 -3 5 1 9 9 9 8 0 15 -2 15 -3z m90 -30 c0 -8 -19 -13 -24 -6 -3 5 1 9 9 9
8 0 15 -2 15 -3z m213 -7 c-4 -6 5 -7 20 -3 15 3 29 1 33 -6 4 -7 3 -8 -4 -4
-18 11 -14 -10 4 -25 13 -10 17 -10 25 2 8 10 9 9 4 -8 -3 -12 -1 -24 5 -28 6
-3 20 -25 32 -48 32 -60 32 -213 1 -273 -29 -55 -90 -112 -134 -125 -29 -9
-119 -8 -177 2 -7 1 -33 24 -57 50 -25 27 -45 47 -46 46 0 -1 -2 -10 -4 -20
-2 -11 -6 -22 -9 -25 -9 -8 -2 30 7 45 4 7 3 22 -3 33 -23 42 -31 128 -19 188
6 31 12 65 12 74 1 9 5 14 9 12 4 -3 8 -1 8 5 0 18 62 81 99 101 28 16 53 19
118 18 49 -1 79 -6 76 -11z m-268 -46 c-3 -6 -11 -11 -16 -11 -5 0 -4 6 3 14
14 16 24 13 13 -3z m407 -38 c-6 -2 -9 -10 -6 -15 4 -7 2 -8 -5 -4 -13 9 -5
26 12 25 9 0 8 -2 -1 -6z m-565 -39 c-3 -3 -12 -4 -19 -1 -8 3 -5 6 6 6 11 1
17 -2 13 -5z m-9 -289 c-3 -3 -9 2 -12 12 -6 14 -5 15 5 6 7 -7 10 -15 7 -18z
m89 -80 c0 -8 -6 -16 -14 -19 -11 -4 -11 -1 -3 14 13 24 17 25 17 5z m399 -41
c1 -9 0 -13 -4 -10 -3 4 -7 14 -8 22 -1 9 0 13 4 10 3 -4 7 -14 8 -22z m-325
-31 c13 -16 12 -17 -3 -4 -17 13 -22 21 -14 21 2 0 10 -8 17 -17z m347 -18 c2
-1 -5 -6 -15 -9 -9 -4 -14 -4 -10 0 4 4 -1 13 -11 21 -15 12 -14 13 8 2 14 -6
26 -13 28 -14z"/>
<path d="M10940 4765 l0 -545 70 0 70 0 0 545 0 545 -70 0 -70 0 0 -545z"/>
<path d="M2008 5254 c-35 -10 -55 -20 -51 -27 3 -6 1 -7 -6 -3 -28 18 -128
-72 -160 -144 -28 -61 -26 -211 2 -193 6 4 8 0 4 -11 -9 -22 32 -87 75 -119
30 -23 94 -59 100 -56 2 0 17 -5 33 -11 17 -7 41 -13 55 -15 14 -1 34 -6 44
-11 11 -4 34 -8 52 -8 18 -1 30 -4 28 -7 -1 -3 14 -13 35 -23 52 -22 87 -59
104 -110 12 -36 13 -45 1 -61 -8 -11 -12 -25 -10 -32 3 -7 0 -12 -7 -10 -7 1
-11 -4 -9 -11 1 -8 -1 -11 -6 -8 -4 3 -21 -4 -38 -15 -16 -10 -37 -19 -48 -19
-13 0 -16 -5 -11 -17 5 -15 4 -16 -6 -5 -8 7 -39 12 -73 12 -104 1 -180 40
-251 129 -37 48 -40 50 -58 34 -10 -10 -16 -25 -14 -35 3 -10 0 -21 -5 -25 -7
-3 -8 -1 -4 5 15 25 -14 10 -38 -19 l-26 -31 20 -28 c34 -48 101 -101 170
-134 62 -29 71 -31 190 -31 98 0 136 4 175 19 50 19 79 36 54 33 -8 -2 -21 -7
-29 -12 -13 -7 -13 -6 -2 7 8 10 23 15 35 12 44 -8 139 112 133 169 -2 15 1
24 6 21 5 -3 8 21 6 58 -3 57 -5 63 -23 60 -20 -4 -20 -3 0 11 19 15 19 16 -9
56 -41 58 -135 124 -191 134 -11 1 -29 8 -40 14 -27 14 -87 25 -81 15 3 -5 -1
-9 -9 -9 -8 0 -13 5 -12 11 1 6 -13 10 -33 10 -19 -1 -29 1 -22 3 8 3 -4 13
-28 24 -23 10 -47 16 -54 12 -6 -3 -8 -3 -4 2 4 4 3 14 -3 22 -14 16 -33 18
-23 1 4 -7 3 -8 -5 -4 -9 6 -9 11 -1 21 8 9 8 15 0 20 -18 11 -12 104 10 135
11 15 16 31 12 35 -4 5 -2 5 4 2 6 -4 26 1 44 10 37 18 150 32 171 21 8 -4 31
-14 51 -23 34 -16 90 -65 120 -108 12 -16 18 -13 67 37 l54 55 -22 33 c-25 36
-98 95 -112 91 -5 -2 -9 1 -9 6 0 18 -96 43 -180 46 -57 3 -104 -1 -142 -11z
m250 -29 c-3 -3 -9 2 -12 12 -6 14 -5 15 5 6 7 -7 10 -15 7 -18z m42 -13 c-21
-7 -23 -6 -26 10 -2 14 1 15 17 5 11 -7 15 -13 9 -15z m-290 3 c0 -7 -30 -13
-34 -7 -3 4 4 9 15 9 10 1 19 0 19 -2z m-95 -43 c-3 -3 -11 0 -18 7 -9 10 -8
11 6 5 10 -3 15 -9 12 -12z m-42 -27 c-3 -9 -8 -14 -10 -11 -3 3 -2 9 2 15 9
16 15 13 8 -4z m518 -12 c13 -16 12 -17 -3 -4 -17 13 -22 21 -14 21 2 0 10 -8
17 -17z m-446 -33 c-3 -5 -12 -10 -18 -10 -7 0 -6 4 3 10 19 12 23 12 15 0z
m500 -29 c-3 -2 -11 1 -18 7 -8 7 -18 8 -22 4 -5 -4 -5 -1 -1 5 5 10 11 10 26
1 11 -7 17 -14 15 -17z m-438 -227 c-3 -3 -12 -4 -19 -1 -8 3 -5 6 6 6 11 1
17 -2 13 -5z m33 -20 c0 -8 -19 -13 -24 -6 -3 5 1 9 9 9 8 0 15 -2 15 -3z
m-150 -28 c0 -2 -8 -10 -17 -17 -16 -13 -17 -12 -4 4 13 16 21 21 21 13z m367
-51 c0 -8 -4 -12 -9 -9 -5 3 -6 10 -3 15 9 13 12 11 12 -6z m-162 -45 c-3 -5
-12 -10 -18 -10 -7 0 -6 4 3 10 19 12 23 12 15 0z m249 -26 c3 -8 2 -12 -4 -9
-6 3 -10 10 -10 16 0 14 7 11 14 -7z m62 -10 c1 -9 0 -13 -4 -10 -3 4 -7 14
-8 22 -1 9 0 13 4 10 3 -4 7 -14 8 -22z m27 -49 c-3 -9 -8 -14 -10 -11 -3 3
-2 9 2 15 9 16 15 13 8 -4z m-117 -15 c0 -12 -4 -16 -9 -11 -5 5 -6 14 -3 20
10 15 12 14 12 -9z m-527 -176 c-12 -15 -11 -16 7 -10 14 4 26 1 35 -11 13
-16 12 -17 -3 -4 -14 10 -21 11 -32 2 -18 -15 -30 11 -13 28 17 17 21 13 6 -5z
m80 -17 c0 -9 -2 -8 -6 1 -2 6 -10 9 -15 6 -7 -4 -8 -2 -4 5 9 13 26 5 25 -12z
m-56 -76 c-4 -6 -43 30 -43 40 0 5 10 -2 23 -14 13 -12 22 -24 20 -26z m487
23 c0 -8 -19 -13 -24 -6 -3 5 1 9 9 9 8 0 15 -2 15 -3z m-37 -69 c-3 -9 -8
-14 -10 -11 -3 3 -2 9 2 15 9 16 15 13 8 -4z"/>
<path d="M7080 5175 l0 -75 151 0 c111 0 148 3 143 12 -4 7 -3 8 5 4 8 -5 9
-12 2 -20 -7 -8 -10 -162 -8 -442 l2 -429 78 -3 77 -3 0 443 0 443 147 0 148
0 3 73 3 72 -376 0 -375 0 0 -75z"/>
<path d="M3738 5005 c-6 -6 -31 -13 -56 -14 -7 -1 -10 -6 -6 -13 4 -7 3 -8 -4
-4 -19 12 -96 -39 -86 -56 3 -4 -5 -8 -16 -8 -16 0 -20 -5 -16 -15 3 -8 0 -14
-6 -12 -6 1 -13 -4 -16 -12 -3 -9 0 -11 9 -6 8 5 11 4 6 -1 -5 -5 -14 -9 -20
-9 -7 0 -25 -27 -41 -60 -41 -85 -48 -221 -17 -324 12 -40 31 -81 41 -91 11
-11 21 -23 21 -27 2 -10 29 -49 29 -42 0 3 17 -10 38 -30 47 -44 119 -71 193
-71 62 0 151 23 173 45 8 8 18 15 23 15 4 0 22 15 38 32 17 17 23 28 15 23 -8
-5 -12 -4 -7 0 14 16 37 14 38 -3 0 -10 0 -36 -1 -59 l-2 -43 76 0 76 0 0 390
0 390 -75 0 -75 0 0 -60 c0 -49 -3 -58 -15 -54 -8 4 -15 12 -15 20 0 17 -79
76 -91 68 -5 -3 -9 0 -9 6 0 6 -4 9 -9 6 -5 -4 -11 -1 -13 5 -4 12 -169 25
-180 14z m-97 -88 c-10 -9 -11 -8 -5 6 3 10 9 15 12 12 3 -3 0 -11 -7 -18z
m380 6 c13 -16 12 -17 -3 -4 -17 13 -22 21 -14 21 2 0 10 -8 17 -17z m-361
-39 c0 -8 -19 -13 -24 -6 -3 5 1 9 9 9 8 0 15 -2 15 -3z m294 -10 c3 -8 2 -12
-4 -9 -6 3 -10 10 -10 16 0 14 7 11 14 -7z m-40 -6 c-2 -4 5 -10 17 -13 33
-11 88 -65 112 -109 18 -34 22 -57 22 -136 0 -103 -16 -150 -69 -199 -14 -13
-23 -28 -20 -32 3 -5 -2 -6 -10 -3 -9 3 -16 1 -16 -6 0 -6 -4 -9 -8 -6 -4 2
-14 1 -22 -5 -13 -7 -13 -9 0 -10 8 -1 18 -1 23 0 12 2 8 -6 -10 -20 -11 -10
-14 -10 -9 -1 8 14 8 14 -84 17 -38 1 -79 9 -98 19 -18 9 -38 14 -45 10 -7 -4
-9 -4 -5 1 4 4 -8 26 -27 47 -80 95 -87 256 -15 358 22 30 26 45 10 35 -6 -3
-7 1 -3 10 4 11 8 13 13 5 5 -8 18 -4 45 11 21 13 54 25 74 29 47 8 130 7 125
-2z m-297 -73 c0 -8 -4 -12 -9 -9 -5 3 -6 10 -3 15 9 13 12 11 12 -6z m-107
-319 c0 -2 -8 -10 -17 -17 -16 -13 -17 -12 -4 4 13 16 21 21 21 13z m105 -5
c3 -5 2 -12 -3 -15 -5 -3 -9 1 -9 9 0 17 3 19 12 6z m462 -35 c0 -8 -3 -15 -6
-14 -18 2 -21 -4 -12 -20 7 -14 6 -19 -3 -19 -16 0 -14 30 3 51 16 20 18 20
18 2z m-523 -44 c2 -4 -5 -9 -17 -9 -17 -2 -19 0 -7 7 18 12 18 12 24 2z m191
-41 c3 -5 2 -12 -3 -15 -5 -3 -9 1 -9 9 0 17 3 19 12 6z m232 -6 c0 -8 -4 -12
-9 -9 -4 3 -8 9 -8 15 0 5 4 9 8 9 5 0 9 -7 9 -15z m-266 -12 c13 -16 12 -17
-3 -4 -17 13 -22 21 -14 21 2 0 10 -8 17 -17z m257 -56 c-7 -7 -22 -16 -33
-20 -16 -6 -15 -3 5 13 28 22 49 27 28 7z"/>
<path d="M4694 4985 c-55 -27 -104 -74 -128 -120 -16 -29 -16 -28 -16 53 l0
82 -75 0 -75 0 0 -390 0 -390 75 0 75 0 0 213 c1 288 7 311 94 381 35 29 44
31 116 31 l79 0 19 78 c20 77 20 79 1 74 -10 -3 -17 -1 -13 4 12 21 -103 9
-152 -16z m-19 -114 c3 -5 2 -12 -3 -15 -5 -3 -9 1 -9 9 0 17 3 19 12 6z m45
3 c0 -8 -19 -13 -24 -6 -3 5 1 9 9 9 8 0 15 -2 15 -3z m105 -22 c-3 -3 -11 0
-18 7 -9 10 -8 11 6 5 10 -3 15 -9 12 -12z"/>
<path d="M6026 4986 c-35 -15 -79 -45 -107 -72 -51 -50 -104 -138 -94 -154 3
-5 2 -10 -3 -10 -11 0 -12 -5 -18 -118 -6 -99 3 -155 38 -225 10 -21 23 -35
27 -32 5 2 15 -3 22 -13 13 -15 12 -16 -3 -3 -10 7 -18 9 -18 3 0 -5 27 -35
60 -66 67 -62 128 -86 215 -86 59 0 141 22 170 45 11 9 14 13 6 9 -9 -4 -12
-3 -7 4 4 6 13 9 20 6 7 -3 29 13 49 36 21 22 37 37 38 33 0 -5 0 -34 -1 -65
l-1 -58 75 0 76 0 0 390 0 390 -75 0 -75 0 0 -62 0 -61 -37 40 c-58 62 -113
85 -213 90 -74 3 -93 1 -144 -21z m451 -48 c-3 -8 -6 -5 -6 6 -1 11 2 17 5 13
3 -3 4 -12 1 -19z m-429 -83 c-3 -3 -9 2 -12 12 -6 14 -5 15 5 6 7 -7 10 -15
7 -18z m232 -2 c19 -8 47 -26 62 -40 14 -14 31 -22 36 -19 6 4 14 1 18 -5 4
-8 3 -9 -4 -5 -7 4 -12 4 -12 0 0 -16 24 -74 31 -74 4 0 7 -43 6 -96 0 -65 4
-99 12 -104 9 -5 8 -9 -4 -13 -9 -4 -13 -3 -10 3 3 6 2 10 -2 10 -12 0 -34
-61 -26 -73 3 -6 1 -7 -4 -4 -13 8 -47 -29 -38 -42 3 -7 0 -8 -9 -5 -9 3 -16
1 -16 -5 0 -6 -3 -10 -7 -9 -5 1 -34 -6 -65 -16 -63 -19 -110 -15 -168 14 -41
21 -80 56 -80 71 0 6 -7 8 -16 5 -8 -3 -12 -2 -9 4 3 5 -1 31 -10 57 -12 34
-16 74 -13 135 2 47 5 84 7 82 2 -2 12 8 21 24 13 20 15 31 6 41 -8 11 -8 13
2 7 8 -5 25 4 46 22 31 27 65 43 121 55 27 6 83 -3 125 -20z m-315 -393 c-3
-5 -11 -10 -16 -10 -6 0 -7 5 -4 10 3 6 11 10 16 10 6 0 7 -4 4 -10z m449 -88
c3 -5 -1 -9 -9 -9 -8 0 -12 4 -9 9 3 4 7 8 9 8 2 0 6 -4 9 -8z m-344 -27 c0
-12 -19 -12 -23 0 -4 9 -1 12 9 8 7 -3 14 -7 14 -8z m250 -5 c-8 -5 -16 -14
-16 -20 -3 -20 -4 -21 -15 -15 -12 8 17 45 35 45 6 0 4 -5 -4 -10z m26 -25
c-3 -23 -12 -26 -13 -5 -1 11 2 20 7 20 4 0 7 -7 6 -15z m-349 -20 c0 -8 -4
-12 -9 -9 -5 3 -6 10 -3 15 9 13 12 11 12 -6z"/>
<path d="M8215 5000 c3 -5 0 -7 -9 -4 -21 8 -98 -34 -90 -49 4 -7 4 -9 -1 -5
-4 4 -14 3 -22 -3 -11 -10 -11 -15 -1 -28 11 -14 11 -14 -3 -3 -15 11 -20 9
-38 -14 -12 -15 -21 -31 -21 -35 0 -5 -4 -9 -9 -9 -4 0 -6 11 -3 25 2 14 -2
33 -9 42 -10 12 -10 14 -1 9 9 -5 12 4 12 34 l0 40 -75 -1 -75 -1 0 -390 0
-389 73 3 72 3 2 228 c2 217 3 230 26 280 16 36 37 61 67 82 39 27 51 30 121
30 l78 0 8 40 c4 22 8 45 8 50 1 6 5 21 9 34 6 16 4 26 -5 32 -20 12 -122 11
-114 -1z m-70 -130 c3 -6 -1 -7 -9 -4 -18 7 -21 14 -7 14 6 0 13 -4 16 -10z
m-18 -17 c-2 -2 -14 -6 -27 -8 -18 -3 -20 -2 -10 10 6 8 18 11 26 8 8 -3 13
-7 11 -10z m-84 -33 c10 -12 9 -12 -5 -2 -13 10 -17 10 -20 0 -3 -8 -6 -7 -10
4 -8 20 17 18 35 -2z m-4 -56 c-6 -8 -17 -14 -23 -14 -6 0 -3 5 7 11 9 6 14
15 11 21 -4 7 -2 8 5 4 9 -6 9 -11 0 -22z"/>
<path d="M8586 4986 c-35 -15 -79 -44 -107 -72 -51 -50 -104 -138 -94 -154 3
-5 2 -10 -3 -10 -11 0 -12 -5 -18 -121 -9 -151 27 -242 131 -337 86 -79 195
-102 314 -66 41 12 51 19 47 31 -5 13 -4 14 9 3 14 -11 19 -7 16 12 0 4 5 5
13 2 7 -3 29 13 49 36 21 22 37 37 38 33 0 -5 0 -34 -1 -65 l-1 -58 75 0 76 0
0 390 0 390 -75 0 -75 0 0 -62 0 -61 -37 40 c-62 66 -104 83 -228 89 -58 4
-81 0 -129 -20z m-36 -39 c0 -2 -12 -14 -27 -28 l-28 -24 24 28 c23 25 31 32
31 24z m345 -26 c3 -5 2 -12 -3 -15 -5 -3 -9 1 -9 9 0 17 3 19 12 6z m-113
-50 c24 -6 41 -5 49 3 9 8 10 8 5 -1 -4 -7 2 -17 13 -22 24 -13 34 -14 27 -3
-3 5 1 9 9 9 11 0 12 -4 4 -14 -11 -12 -5 -17 14 -14 5 1 6 -3 3 -8 -8 -12 20
-34 33 -27 5 4 13 2 16 -4 4 -6 3 -9 -2 -8 -4 2 -9 1 -11 -2 -4 -8 22 -70 29
-70 4 0 7 -43 6 -96 0 -65 4 -99 12 -104 9 -5 8 -9 -4 -13 -9 -4 -13 -3 -10 3
3 6 2 10 -3 10 -6 0 -13 -11 -16 -24 -6 -25 -79 -116 -93 -117 -4 0 -31 -7
-60 -15 -109 -32 -224 24 -272 132 -21 46 -27 155 -12 211 6 21 11 41 11 45 2
15 76 91 102 104 22 11 77 28 108 33 3 0 22 -3 42 -8z m-282 -101 c0 -5 -2
-10 -4 -10 -3 0 -8 5 -11 10 -3 6 -1 10 4 10 6 0 11 -4 11 -10z m30 -304 c0
-2 -7 -7 -16 -10 -8 -3 -12 -2 -9 4 6 10 25 14 25 6z m15 -26 c3 -6 -1 -7 -9
-4 -18 7 -21 14 -7 14 6 0 13 -4 16 -10z m-85 -54 c0 -3 -4 -8 -10 -11 -5 -3
-10 -1 -10 4 0 6 5 11 10 11 6 0 10 -2 10 -4z m443 -11 c-3 -9 -8 -14 -10 -11
-3 3 -2 9 2 15 9 16 15 13 8 -4z m71 -3 c3 -5 -1 -9 -9 -9 -8 0 -12 4 -9 9 3
4 7 8 9 8 2 0 6 -4 9 -8z m-129 -31 c-9 -8 -36 -10 -30 -2 2 4 11 8 20 8 8 0
13 -3 10 -6z"/>
<path d="M10345 5004 c-23 -6 -54 -19 -104 -43 -70 -33 -173 -163 -155 -193 5
-7 3 -8 -6 -3 -10 6 -12 3 -8 -13 4 -12 3 -20 -2 -17 -4 2 -10 -9 -14 -26 -10
-50 -7 -197 4 -204 6 -4 8 -11 4 -16 -7 -12 46 -119 63 -126 7 -3 13 -11 13
-19 0 -13 59 -64 75 -64 4 0 1 8 -6 18 -11 15 -11 15 1 4 8 -7 16 -17 16 -22
1 -6 2 -12 3 -15 0 -3 12 2 26 11 14 9 28 14 32 10 3 -3 1 -6 -6 -6 -7 0 -9
-4 -6 -10 3 -6 -1 -7 -9 -4 -9 3 -16 2 -16 -4 0 -15 86 -45 110 -39 12 3 18 1
14 -5 -5 -7 24 -9 92 -6 87 4 108 9 174 41 70 33 148 86 108 73 -12 -3 -15 -1
-11 10 7 19 -17 50 -27 34 -5 -8 -9 -6 -13 5 -4 9 -3 13 3 10 13 -8 13 1 -2
24 -9 15 -16 17 -30 10 -10 -6 -15 -15 -12 -21 4 -6 3 -8 -4 -4 -6 3 -18 -2
-28 -11 -10 -10 -20 -17 -23 -16 -3 1 -30 -5 -60 -14 -64 -18 -131 -13 -196
16 -25 11 -46 16 -46 10 -1 -5 -2 -13 -3 -18 0 -5 -4 -12 -8 -15 -5 -3 -6 -3
-3 1 3 3 -1 13 -8 21 -9 13 -9 14 1 8 19 -11 14 19 -6 37 -10 10 -22 14 -26
10 -4 -5 -7 -3 -6 2 4 20 0 35 -11 35 -5 0 -7 -4 -4 -10 3 -5 0 -10 -7 -10
-10 0 -9 -3 2 -11 12 -9 12 -10 -3 -5 -10 3 -21 6 -23 6 -3 0 4 9 15 21 17 18
18 23 5 47 -8 15 -14 37 -14 50 l0 22 268 1 c147 1 279 0 295 -1 27 -2 27 -1
27 65 0 78 -18 158 -33 148 -5 -3 -7 -1 -3 5 20 32 -77 148 -159 190 -41 20
-67 26 -140 28 -49 2 -99 1 -110 -2z m320 -92 c-3 -3 -11 0 -18 7 -9 10 -8 11
6 5 10 -3 15 -9 12 -12z m-455 -6 c0 -2 -7 -9 -15 -16 -13 -11 -14 -10 -9 4 5
14 24 23 24 12z m322 -52 c18 -9 44 -26 57 -38 13 -11 21 -16 17 -9 -3 6 -1
15 5 19 8 4 9 3 5 -4 -4 -7 -2 -12 5 -12 10 0 10 -3 2 -11 -8 -8 -7 -20 3 -45
28 -67 36 -64 -198 -64 -187 0 -214 -2 -232 -17 -13 -12 -17 -13 -10 -3 7 8
15 26 19 39 6 20 4 23 -9 18 -10 -4 -15 -3 -11 3 3 6 12 10 18 10 7 0 23 19
36 43 45 83 196 120 293 71z m-378 -10 c3 -8 2 -12 -4 -9 -6 3 -10 10 -10 16
0 14 7 11 14 -7z m-5 -63 c-2 -6 -10 2 -17 17 -11 25 -11 25 4 10 9 -9 15 -21
13 -27z m55 -177 c3 -8 2 -12 -4 -9 -6 3 -10 10 -10 16 0 14 7 11 14 -7z m-27
-94 c2 -11 -1 -20 -5 -20 -4 0 -8 11 -8 25 0 28 8 24 13 -5z m402 -173 c8 -10
7 -14 -2 -14 -8 0 -14 6 -14 14 0 7 1 13 2 13 2 0 8 -6 14 -13z m86 -15 c-3
-3 -11 0 -18 7 -9 10 -8 11 6 5 10 -3 15 -9 12 -12z m-4 -29 c13 -16 12 -17
-3 -4 -10 7 -18 15 -18 17 0 8 8 3 21 -13z m-344 -29 c-3 -3 -12 -4 -19 -1 -8
3 -5 6 6 6 11 1 17 -2 13 -5z"/>
<path d="M9271 4883 c28 -65 64 -151 80 -191 19 -43 35 -69 41 -65 7 3 8 1 4
-6 -8 -13 40 -142 58 -153 6 -4 7 -8 3 -8 -4 0 -2 -10 5 -22 12 -23 14 -29 17
-49 0 -5 6 -7 13 -3 7 5 8 3 4 -5 -8 -13 11 -71 24 -71 3 0 7 -6 7 -14 0 -8 5
-28 13 -45 12 -29 16 -31 64 -31 l52 0 30 67 c16 37 29 70 29 73 0 3 4 11 8
18 5 6 5 17 1 24 -4 6 -3 8 3 5 17 -10 36 42 22 59 -10 12 -9 13 5 8 9 -3 16
-4 16 -1 0 2 11 30 25 61 15 34 20 55 13 51 -7 -4 -6 -1 3 7 19 15 46 65 51
93 1 11 6 22 9 25 15 13 99 215 95 227 -3 8 -2 12 3 9 5 -3 14 8 20 24 l10 30
-67 0 c-37 0 -72 -4 -77 -8 -11 -7 -102 -213 -107 -242 -2 -8 -9 -21 -15 -28
-11 -12 -15 -27 -12 -48 0 -4 -4 -10 -11 -14 -6 -4 -12 -13 -13 -21 -2 -8 -6
-20 -10 -26 -5 -7 -5 -13 -2 -13 4 0 -1 -7 -9 -16 -14 -14 -21 -35 -17 -56 0
-5 -3 -8 -8 -8 -9 0 -26 -48 -22 -63 1 -5 -4 -7 -11 -5 -7 3 -26 36 -43 74
-16 38 -34 72 -40 76 -5 4 -7 8 -3 8 10 0 -23 83 -36 92 -6 4 -8 8 -4 8 4 0 2
13 -3 30 -6 16 -15 28 -19 25 -4 -3 -6 5 -2 17 3 11 1 19 -4 16 -5 -4 -10 5
-10 18 -1 14 -8 32 -15 40 -7 9 -14 24 -16 33 -1 10 -11 39 -22 64 l-20 47
-80 0 -79 0 49 -117z m660 45 c-11 -11 -13 -10 -7 0 4 7 2 21 -5 30 -12 15
-11 15 6 0 16 -15 17 -20 6 -30z m-554 -37 c0 -11 -5 -18 -9 -15 -4 3 -5 11
-1 19 7 21 12 19 10 -4z m436 -74 c3 -8 -1 -14 -8 -14 -7 0 -11 6 -8 14 3 7 6
13 8 13 2 0 5 -6 8 -13z m-133 -333 c0 -8 -19 -13 -24 -6 -3 5 1 9 9 9 8 0 15
-2 15 -3z m5 -72 c-3 -3 -11 0 -18 7 -9 10 -8 11 6 5 10 -3 15 -9 12 -12z"/>
<path d="M2300 3790 c0 -143 1 -150 20 -150 19 0 20 7 20 150 0 143 -1 150
-20 150 -19 0 -20 -7 -20 -150z"/>
<path d="M3533 3924 c-3 -8 -1 -20 5 -26 16 -16 42 -2 42 22 0 24 -38 28 -47
4z"/>
<path d="M4170 3750 c0 -162 2 -190 15 -190 13 0 15 28 15 190 0 162 -2 190
-15 190 -13 0 -15 -28 -15 -190z"/>
<path d="M4442 3920 c-79 -48 -83 -198 -8 -257 35 -28 96 -38 140 -23 37 12
86 61 86 86 0 24 -36 16 -48 -11 -24 -52 -105 -60 -154 -16 -30 27 -33 34 -33
89 0 50 4 65 24 86 47 50 131 41 159 -17 8 -16 21 -27 33 -27 23 0 23 1 5 45
-8 19 -28 41 -45 49 -43 23 -119 20 -159 -4z"/>
<path d="M5774 3925 c-4 -9 -2 -21 4 -27 15 -15 44 -1 40 19 -4 23 -36 29 -44
8z"/>
<path d="M7260 3750 c0 -162 2 -190 15 -190 13 0 15 28 15 190 0 162 -2 190
-15 190 -13 0 -15 -28 -15 -190z"/>
<path d="M7490 3790 c0 -143 1 -150 20 -150 17 0 20 7 20 50 0 48 1 50 28 50
94 0 145 51 126 127 -12 49 -57 73 -136 73 l-58 0 0 -150z m150 78 c13 -25 13
-31 0 -55 -13 -24 -23 -28 -63 -31 l-47 -3 0 61 0 61 47 -3 c40 -3 50 -7 63
-30z"/>
<path d="M8217 3929 c-9 -5 -24 -26 -32 -45 -8 -18 -19 -34 -24 -34 -6 0 -11
-4 -11 -10 0 -5 7 -10 15 -10 12 0 15 -17 15 -95 0 -88 1 -95 20 -95 19 0 20
7 20 95 l0 95 35 0 c19 0 35 5 35 10 0 6 -16 10 -36 10 -31 0 -35 3 -32 23 2
15 13 25 36 32 17 5 32 15 32 22 0 16 -47 17 -73 2z"/>
<path d="M9014 3925 c-4 -9 -2 -21 4 -27 15 -15 44 -1 40 19 -4 23 -36 29 -44
8z"/>
<path d="M9880 3925 c0 -8 7 -15 15 -15 13 0 15 -22 15 -135 0 -128 1 -135 20
-135 19 0 20 7 20 150 l0 150 -35 0 c-24 0 -35 -5 -35 -15z"/>
<path d="M10024 3925 c-4 -9 -2 -21 4 -27 15 -15 44 -1 40 19 -4 23 -36 29
-44 8z"/>
<path d="M2680 3890 c0 -20 -5 -30 -15 -30 -8 0 -15 -7 -15 -15 0 -8 6 -15 14
-15 10 0 15 -20 18 -81 3 -66 7 -83 23 -95 26 -19 95 -19 95 1 0 10 -10 15
-28 15 -43 0 -52 17 -52 92 l0 68 40 0 c29 0 40 4 40 15 0 11 -11 15 -40 15
-38 0 -40 2 -40 30 0 23 -4 30 -20 30 -16 0 -20 -7 -20 -30z"/>
<path d="M3670 3890 c0 -23 -4 -30 -20 -30 -11 0 -20 -7 -20 -15 0 -8 9 -15
20 -15 18 0 20 -7 20 -78 0 -64 4 -82 18 -95 24 -22 92 -23 92 -2 0 9 -9 15
-22 15 -43 0 -52 15 -56 89 l-4 71 41 0 c30 0 41 4 41 15 0 11 -11 15 -40 15
-38 0 -40 2 -40 30 0 20 -5 30 -15 30 -10 0 -15 -10 -15 -30z"/>
<path d="M5910 3890 c0 -23 -4 -30 -20 -30 -11 0 -20 -7 -20 -15 0 -8 9 -15
20 -15 18 0 20 -7 20 -78 0 -64 4 -82 18 -95 24 -22 92 -23 92 -2 0 10 -10 15
-30 15 -38 0 -50 23 -50 99 l0 61 40 0 c29 0 40 4 40 15 0 11 -11 15 -40 15
-38 0 -40 2 -40 30 0 20 -5 30 -15 30 -10 0 -15 -10 -15 -30z"/>
<path d="M6980 3890 c0 -23 -4 -30 -20 -30 -11 0 -20 -7 -20 -15 0 -8 9 -15
20 -15 18 0 20 -7 20 -78 0 -64 4 -82 18 -95 24 -22 92 -23 92 -2 0 8 -9 15
-19 15 -46 0 -51 9 -51 86 l0 74 35 0 c24 0 35 5 35 15 0 10 -11 15 -35 15
-32 0 -35 2 -35 30 0 23 -4 30 -20 30 -16 0 -20 -7 -20 -30z"/>
<path d="M2420 3750 c0 -103 1 -110 20 -110 18 0 20 7 20 78 0 66 3 82 20 97
26 23 68 13 80 -21 6 -14 10 -54 10 -90 0 -50 3 -64 15 -64 12 0 15 17 15 90
0 77 -3 93 -20 110 -25 25 -86 27 -112 3 -17 -15 -18 -15 -18 0 0 10 -7 17
-15 17 -12 0 -15 -19 -15 -110z"/>
<path d="M2865 3836 c-68 -68 -20 -206 73 -206 53 0 122 60 85 74 -10 4 -21
-1 -30 -14 -28 -40 -123 -14 -123 35 0 12 16 15 85 15 l85 0 0 31 c0 20 -10
40 -29 60 -39 39 -109 41 -146 5z m117 -23 c35 -32 23 -43 -47 -43 -65 0 -66
0 -54 23 7 12 17 25 23 29 19 13 59 9 78 -9z"/>
<path d="M3115 3837 c-32 -27 -44 -92 -25 -137 22 -54 101 -77 148 -44 21 14
22 14 22 -5 0 -38 -35 -61 -90 -61 -38 0 -50 -4 -50 -15 0 -12 13 -15 59 -15
49 0 65 4 88 24 28 24 28 26 31 150 3 110 2 126 -12 126 -10 0 -16 -9 -16 -22
l0 -21 -23 21 c-32 30 -97 30 -132 -1z m125 -27 c45 -45 12 -133 -50 -133 -41
0 -70 32 -70 79 0 43 30 74 70 74 17 0 39 -9 50 -20z"/>
<path d="M3370 3750 c0 -103 1 -110 20 -110 18 0 20 7 20 74 0 82 13 106 56
106 17 0 24 5 24 20 0 28 -35 26 -65 -5 l-25 -24 0 24 c0 16 -6 25 -15 25 -12
0 -15 -19 -15 -110z"/>
<path d="M3510 3845 c0 -8 9 -15 20 -15 19 0 20 -7 20 -95 0 -88 1 -95 20 -95
19 0 20 7 20 110 l0 110 -40 0 c-29 0 -40 -4 -40 -15z"/>
<path d="M3831 3778 c17 -46 36 -95 41 -110 5 -16 14 -28 19 -28 14 0 11 -17
-7 -34 -8 -9 -26 -16 -40 -16 -15 0 -24 -6 -24 -15 0 -22 65 -20 89 4 10 10
28 51 40 92 12 41 30 98 38 126 9 29 14 56 10 59 -17 17 -35 -12 -57 -90 -14
-47 -27 -86 -30 -86 -3 0 -19 39 -36 88 -25 69 -36 88 -53 90 -21 3 -20 2 10
-80z"/>
<path d="M4749 3845 c-51 -28 -65 -130 -23 -176 47 -53 149 -45 185 15 31 50
25 102 -15 142 -28 28 -41 34 -77 34 -24 -1 -56 -7 -70 -15z m116 -40 c50 -49
17 -135 -51 -135 -47 0 -74 29 -74 79 0 72 76 106 125 56z"/>
<path d="M4990 3750 c0 -103 1 -110 20 -110 18 0 20 7 20 79 0 71 2 82 22 95
54 38 78 9 78 -95 0 -72 2 -79 20 -79 18 0 20 7 20 79 0 71 2 82 22 95 54 38
78 9 78 -95 0 -72 2 -79 20 -79 18 0 20 7 20 81 0 77 -10 115 -34 131 -21 15
-76 8 -95 -11 -19 -19 -20 -19 -37 0 -25 28 -88 26 -108 -3 l-16 -22 0 22 c0
13 -6 22 -15 22 -12 0 -15 -19 -15 -110z"/>
<path d="M5380 3750 c0 -103 1 -110 20 -110 18 0 20 7 20 75 0 62 4 79 20 95
23 23 33 24 61 10 16 -9 19 -22 19 -95 0 -78 2 -85 20 -85 18 0 20 7 20 75 0
62 4 79 20 95 23 23 33 24 61 10 16 -9 19 -22 19 -95 0 -78 2 -85 20 -85 18 0
20 7 20 88 0 108 -13 132 -70 132 -30 0 -43 -6 -59 -26 -12 -15 -21 -22 -21
-16 0 21 -32 42 -63 42 -37 0 -49 -7 -65 -35 -11 -19 -11 -18 -12 8 0 17 -5
27 -15 27 -12 0 -15 -19 -15 -110z"/>
<path d="M5750 3846 c0 -7 9 -16 20 -19 18 -5 20 -14 20 -96 0 -84 1 -91 20
-91 19 0 20 7 20 110 l0 110 -40 0 c-27 0 -40 -4 -40 -14z"/>
<path d="M6070 3750 c0 -103 1 -110 20 -110 18 0 20 7 20 79 0 71 2 82 22 95
54 38 78 9 78 -95 0 -72 2 -79 20 -79 18 0 20 7 20 75 0 62 4 79 20 95 23 23
33 24 61 10 16 -9 19 -22 19 -95 0 -78 2 -85 20 -85 19 0 20 7 20 90 0 77 -3
93 -20 110 -27 27 -83 27 -108 0 l-19 -20 -18 20 c-24 26 -79 26 -105 0 l-20
-20 0 20 c0 11 -7 20 -15 20 -12 0 -15 -19 -15 -110z"/>
<path d="M6479 3831 c-24 -25 -29 -37 -29 -80 0 -42 5 -56 29 -83 25 -28 36
-33 75 -33 36 0 51 6 73 28 23 23 26 29 13 37 -10 6 -21 3 -35 -10 -40 -37
-115 -15 -115 33 0 15 12 17 85 17 94 0 97 2 71 65 -17 41 -42 55 -96 55 -33
0 -48 -6 -71 -29z m113 -13 c8 -7 18 -21 21 -30 6 -16 -1 -18 -58 -18 -71 0
-85 15 -43 44 27 19 59 20 80 4z"/>
<path d="M6710 3750 c0 -103 1 -110 20 -110 18 0 20 7 20 75 0 81 18 115 59
115 39 0 51 -26 51 -111 0 -72 2 -79 20 -79 18 0 20 7 20 88 0 75 -3 92 -20
110 -28 30 -86 30 -117 0 l-23 -21 0 21 c0 13 -6 22 -15 22 -12 0 -15 -19 -15
-110z"/>
<path d="M7740 3750 c0 -103 1 -110 20 -110 18 0 20 7 20 73 0 80 15 107 58
107 15 0 22 6 22 20 0 28 -35 26 -65 -5 l-25 -24 0 24 c0 16 -6 25 -15 25 -12
0 -15 -19 -15 -110z"/>
<path d="M7924 3826 c-40 -40 -46 -92 -14 -143 57 -94 210 -47 210 64 0 72
-43 113 -121 113 -33 0 -47 -6 -75 -34z m130 -17 c20 -16 26 -29 26 -60 0 -49
-27 -79 -72 -79 -71 0 -104 84 -53 135 30 30 64 32 99 4z"/>
<path d="M8349 3831 c-24 -24 -29 -38 -29 -76 0 -25 7 -59 15 -75 17 -33 72
-55 113 -45 28 7 72 42 72 57 0 14 -37 9 -50 -7 -29 -34 -96 -12 -113 38 -6
15 2 17 83 17 50 0 90 3 90 8 0 29 -24 84 -43 97 -12 8 -41 15 -65 15 -35 0
-49 -6 -73 -29z m107 -9 c6 -4 16 -17 23 -29 12 -23 11 -23 -54 -23 -50 0 -65
3 -65 14 0 31 67 58 96 38z"/>
<path d="M8592 3844 c-27 -19 -29 -64 -4 -87 9 -8 37 -19 62 -24 39 -7 45 -12
45 -33 0 -22 -5 -25 -43 -28 -31 -2 -44 1 -48 12 -6 15 -44 23 -44 10 0 -21
26 -45 59 -55 33 -10 45 -9 78 7 30 15 39 25 41 50 4 38 -19 59 -78 71 -31 6
-46 14 -48 27 -7 34 54 50 78 21 15 -19 40 -20 40 -2 0 42 -92 63 -138 31z"/>
<path d="M8812 3844 c-23 -16 -29 -57 -13 -83 5 -7 33 -19 62 -25 47 -11 54
-16 54 -37 0 -21 -5 -24 -43 -27 -31 -2 -44 1 -48 12 -7 19 -44 21 -44 3 0
-57 141 -71 170 -17 26 48 0 85 -68 96 -50 8 -70 27 -52 49 7 8 26 15 42 15
16 0 31 -6 34 -15 8 -19 44 -20 44 -2 0 42 -92 63 -138 31z"/>
<path d="M8990 3846 c0 -7 9 -16 20 -19 18 -5 20 -14 20 -96 0 -84 1 -91 20
-91 19 0 20 7 20 110 l0 110 -40 0 c-27 0 -40 -4 -40 -14z"/>
<path d="M9171 3844 c-57 -40 -62 -130 -9 -181 40 -38 113 -40 152 -4 55 52
55 137 -1 181 -32 25 -108 27 -142 4z m119 -34 c62 -62 5 -163 -77 -134 -33
11 -57 56 -49 90 15 59 86 84 126 44z"/>
<path d="M9410 3750 c0 -103 1 -110 20 -110 18 0 20 7 20 75 0 80 18 115 58
115 38 0 52 -32 52 -113 0 -70 2 -77 20 -77 18 0 20 7 20 81 0 112 -16 139
-82 139 -28 0 -42 -6 -57 -26 l-21 -27 0 27 c0 16 -5 26 -15 26 -12 0 -15 -19
-15 -110z"/>
<path d="M9680 3840 c0 -19 5 -21 38 -19 57 3 69 0 76 -17 9 -23 6 -24 -50
-30 -58 -6 -84 -27 -84 -68 0 -40 9 -52 44 -66 32 -12 62 -6 89 18 15 14 17
13 17 -1 0 -10 7 -17 16 -17 14 0 15 13 12 90 -4 110 -13 122 -98 128 -57 4
-60 3 -60 -18z m120 -111 c0 -11 -5 -29 -10 -40 -15 -27 -75 -26 -90 1 -15 28
19 60 65 60 29 0 35 -4 35 -21z"/>
<path d="M10000 3845 c0 -8 7 -15 15 -15 12 0 15 -17 15 -95 0 -88 1 -95 20
-95 19 0 20 7 20 110 l0 110 -35 0 c-24 0 -35 -5 -35 -15z"/>
<path d="M10157 3842 c-20 -22 -23 -77 -5 -88 7 -4 35 -13 63 -19 77 -17 75
-64 -3 -65 -20 0 -35 6 -38 15 -8 19 -44 20 -44 2 0 -39 70 -65 125 -47 93 31
55 130 -50 130 -30 0 -43 24 -25 45 16 19 54 19 74 0 19 -19 46 -19 46 -1 0
42 -111 63 -143 28z"/>
<path d="M10370 3750 c0 -103 1 -110 20 -110 17 0 19 8 22 87 3 86 3 88 32 98
24 8 31 6 47 -14 15 -18 19 -39 19 -97 0 -67 2 -74 20 -74 18 0 20 7 20 79 0
84 12 111 50 111 34 0 50 -39 50 -117 0 -67 2 -73 21 -73 20 0 21 4 17 89 -2
70 -7 93 -22 110 -25 28 -86 29 -111 1 l-18 -20 -14 20 c-18 25 -79 27 -105 3
-17 -15 -18 -15 -18 0 0 10 -7 17 -15 17 -12 0 -15 -19 -15 -110z"/>
</g>
</svg>
